<svg id="adobe-xd-1" xmlns="http://www.w3.org/2000/svg" width="102.564" height="100" viewBox="0 0 102.564 100">
  <path id="Path_54" data-name="Path 54" d="M84.4,100H18.162A18.146,18.146,0,0,1,0,81.838V18.162A18.146,18.146,0,0,1,18.162,0H84.4a18.146,18.146,0,0,1,18.162,18.162V81.838A18.146,18.146,0,0,1,84.4,100Z" fill="#ff26be"/>
  <path id="Path_55" data-name="Path 55" d="M182.7,195.65H119.712A15.539,15.539,0,0,1,104.2,180.138V119.712A15.539,15.539,0,0,1,119.712,104.2h62.95a15.51,15.51,0,0,1,15.512,15.512V180.1A15.487,15.487,0,0,1,182.7,195.65Z" transform="translate(-99.925 -99.925)" fill="#2e001f"/>
  <path id="Path_56" data-name="Path 56" d="M488.1,615.274l11.967,22.991c.213.341.086.685-.258.685h-7.438a.838.838,0,0,1-.9-.554c-2.736-5.641-5.514-11.282-8.377-17.35h-.086c-2.564,5.727-5.387,11.754-8.119,17.395a.825.825,0,0,1-.771.472h-7.044c-.427,0-.472-.341-.254-.6L478.526,616,467.2,593.44a.345.345,0,0,1,.254-.6h7.352c.427,0,.6.086.767.472,2.691,5.641,5.428,11.454,7.992,17.136h.086c2.478-5.641,5.214-11.5,7.865-17.1.213-.341.341-.554.771-.554h6.88c.341,0,.472.258.258.6Zm14.064,6.966c0-9.957,6.626-17.735,17.136-17.735a18.832,18.832,0,0,1,2.224.086V593.268a.426.426,0,0,1,.427-.427H528.7c.341,0,.427.127.427.341v39.233a30.524,30.524,0,0,0,.213,4.189c0,.258-.086.34-.341.472a25.441,25.441,0,0,1-10.942,2.478c-9.276.037-15.9-5.686-15.9-17.313ZM521.517,611.3a6.424,6.424,0,0,0-2.478-.427c-5.387,0-9.145,4.144-9.145,11.028,0,7.865,3.848,11.028,8.677,11.028a8.012,8.012,0,0,0,2.95-.472V611.3Z" transform="translate(-447.543 -568.48)" fill="#ffd9f2"/>
</svg>
