<svg xmlns="http://www.w3.org/2000/svg" width="380" height="380"><g data-name="Avatar"><rect data-name="Rectangle 6" width="380" height="380" rx="190" fill="#177abb"/><path data-name="Path 180" d="M253.248 240.55l-49.25 52.573s-63.178-25.292-56.535-33.941c2.578-3.356 2.162-13.839.676-25.569-2.336-18.406-7.318-39.632-7.318-39.632s110.422-17.956 101.1.657c-3.461 6.816-2.8 14.756-.692 22.091a83.032 83.032 0 0 0 12.022 23.821z" fill="#fbbebe"/><path data-name="Path 181" d="M241.918 194.638c-3.461 6.816-5.018 7.473-2.891 14.808-14.443 15.569-32.868 32.436-55.633 32.436a78.758 78.758 0 0 1-35.256-8.269c-2.336-18.406-7.318-39.633-7.318-39.633s110.42-17.956 101.098.658z" opacity=".1"/><path data-name="Path 182" d="M262.555 160.714a79.174 79.174 0 1 1-158.349 0c.008-.381.008-.761.008-1.142a79.163 79.163 0 1 1 158.322 1.142z" fill="#fbbebe"/><path data-name="Path 183" d="M162.098 258.507l-61.205 28.613-8.655 65.126s33.979 24.7 88.51 27.34c26 1.262 59.031-1.732 92.377-19.375l-1.263-62.469-10.64-33.924-28.613-17.3-29.3 23.3-13.839 1.972z" fill="#e7effd"/><path data-name="Path 184" d="M161.094 275.477s17.628 20.95 17.3 25.274-.986 14.635-.986 14.635l-13.321 26.952s-4.59 21.073-6.582 33.848c-.272 1.746 13.862 2.113 13.862 2.113a58.738 58.738 0 0 0 10.839 1.08c2.335.032 7.823 1.361 8.014-1.08 1.547-19.875 3.137-41.316 3.137-45.32 0-7.975-3.649-28.942-3.649-28.942s4.325-19.963 22.282-24.617-1.333-1-1.333-1l-10.378-8.323-8.979 3.667s-24.877-7.594-30.206 1.713z" opacity=".1"/><path data-name="Path 185" d="M159.106 273.523s17.628 20.949 17.3 25.274-1 14.635-1 14.635l-13.3 26.952s-6.618 29.192-6.618 36.164c5.8 1.381 5.248 1.1 15.051 2.209 3.069.346 6.562.534 11.462.668 1.881.112 3.458-.181 4.329 0 .526.171 1.628.763 1.79-1.308 1.594-20.424 3.275-42.968 3.275-47.092 0-7.992-3.65-28.942-3.65-28.942s4.324-19.946 22.281-24.617-1.333-.986-1.333-.986l-10.38-8.321-8.839 3.633s-25.04-7.632-30.368 1.731z" fill="#3f3d56"/><path data-name="Path 186" d="M147.463 238.56s-2.664 1.989-3.321 15.292-9.981 43.248-9.981 43.248 34.6-23.959 51.9-21.3z" opacity=".1"/><path data-name="Path 187" d="M147.463 234.565s-2.664 1.989-3.321 15.31-9.981 43.248-9.981 43.248 34.6-23.942 51.9-21.278z" fill="#e7effd"/><path data-name="Path 188" d="M241.935 227.905l-54.562 47.9s45.912 27.281 51.9 33.941 11.971-65.2 11.971-65.2z" opacity=".1"/><path data-name="Path 189" d="M243.924 223.925l-54.458 47.87s45.895 27.264 51.9 33.924 11.989-65.2 11.989-65.2z" fill="#e7effd"/><path data-name="Path 190" d="M149.452 238.559s-5.986-2.993-11.642 5.656-16.3 12.629-16.3 12.629-60.548 9.653-62.866 17.628l-28.267 1.73s.137-.7-2.121 1.006c-2.585 1.922 24.485 56.671 100.706 92.849l.609-3.068 11.642-79.836s12.91-42.936 8.239-48.594z" opacity=".1"/><path data-name="Path 191" d="M147.463 234.564s-5.985-2.993-11.643 5.657-16.3 12.646-16.3 12.646-60.547 9.636-62.865 17.628l-28.284 1.73s-6.913 1.831-8.215 2.419c-.563.242 13.118 30.378 43.91 57.856 15.036 14.33 38.663 27.478 62.274 36.453l1.173-6.063 11.642-79.836s12.962-42.833 8.308-48.49z" fill="#65617d"/><path data-name="Path 192" d="M234.289 267.83l9.635-43.905s4.325 14.306 8.65 17.628l14.307 10.968s14.307 6.66 19.289 6.66 31.934 6.92 35.256 10.639 16.643 1 16.643 1 9.5 2.856 19.151 5.191-74.285 84.384-126.347 99.708z" opacity=".1"/><path data-name="Path 193" d="M234.738 374.753l3.511-107.043 5.656-43.906s8.322 14.306 12.646 17.611S270.84 252.4 270.84 252.4s14.307 6.66 19.306 6.66 31.935 6.92 35.256 10.639 16.643 1 16.643 1 9.226 3.536 17.1 5.736a260.06 260.06 0 0 1-22.507 34.244c-12.895 16.252-30.654 29.826-30.654 29.826s-18.365 13.808-36.316 22.093a199.381 199.381 0 0 1-34.93 12.155z" fill="#65617d"/><path data-name="Path 194" d="M262.555 160.714a78.882 78.882 0 0 1-9.359 37.366l-.588-.1c-5.018-1.055-7.629-6.92-11.469-10.552a15.57 15.57 0 0 0-17.957-2.526 18.268 18.268 0 0 0-8.822 17.074c-2.527-10.656-1.73-21.987-4.2-32.661s-9.931-21.468-20.119-21.659c-4.395 0-9.531 1.626-12.7-1.73-1.92-1.989-2.318-5.19-3.754-7.525-7.283-11.8-29.408-5.83-38.507.208-8.754 5.813-19.583 15.708-30.846 20.9a79.164 79.164 0 0 1 158.323 1.142z" opacity=".1"/><path data-name="Path 196" d="M173.584 136.461c1.453 2.4 1.834 5.553 3.754 7.525 3.166 3.287 8.3 1.609 12.7 1.73 10.189.173 17.646 10.985 20.12 21.659s1.729 21.987 4.2 32.644a18.233 18.233 0 0 1 8.84-17.057 15.57 15.57 0 0 1 17.939 2.508c3.841 3.65 6.452 9.5 11.47 10.552s9.86-3.754 11.659-9.047 1.73-11.089 2.872-16.573c2.266-10.38 9.029-18.873 12.784-28.734a52.106 52.106 0 0 0-.347-37.159c-2.491-6.245-6.21-11.867-8.649-18.112-3.841-9.48-4.843-20.171-9.5-29.2-7.836-15.12-26.278-22.7-41.432-17.005-7.231 2.716-13.511 7.975-20.846 10.38-9.844 3.148-20.344.779-30.533-.64s-21.412-1.56-29.595 5.187c-9.411 7.7-11.989 22.178-20.759 30.637-3.721 3.546-8.339 5.813-12.266 9.1s-7.3 8.165-6.92 13.511c.588 6.92 7.335 13.147 4.843 19.531a15.8 15.8 0 0 1-3.684 4.861 69.3 69.3 0 0 0-16.105 27.4c17.8 5.553 37.072-14.064 51-23.337 9.012-6.174 31.172-12.073 38.455-.361z" fill="#7c5c5c"/><g data-name="Group 3" opacity=".1"><path data-name="Path 160" d="M104.856 121.289c2.439-6.245-3.945-12.352-4.771-19.029a12.544 12.544 0 0 0-1.072 6.02c.433 5.034 4.153 9.757 5.19 14.41a7.964 7.964 0 0 0 .657-1.4z"/><path data-name="Path 161" d="M215.257 192.926c-2.386-10.5-1.729-21.607-4.115-32.09s-9.913-21.486-20.1-21.659c-4.395 0-9.533 1.609-12.716-1.73-1.9-1.972-2.3-5.19-3.737-7.525-7.282-11.8-29.408-5.812-38.525.225-13.614 9.047-32.3 27.956-49.734 23.665a65.012 65.012 0 0 0-2.266 6.159c17.8 5.553 37.071-14.064 51-23.337 9.083-6.037 31.243-12.109 38.525-.225 1.454 2.4 1.835 5.553 3.754 7.525 3.167 3.287 8.3 1.609 12.7 1.73 10.189.173 17.646 10.985 20.119 21.659s1.729 21.987 4.2 32.644a18 18 0 0 1 .9-7.041z"/><path data-name="Path 162" d="M265.272 180.435c-1.73 5.293-6.557 10.137-11.678 9.047s-7.629-6.92-11.453-10.552a15.568 15.568 0 0 0-17.956-2.508 18.13 18.13 0 0 0-8.822 16.123 17.3 17.3 0 0 1 7.837-9.636 15.569 15.569 0 0 1 17.939 2.508c3.84 3.65 6.452 9.5 11.469 10.552s9.861-3.754 11.659-9.047a45.274 45.274 0 0 0 1.834-9.549 26.948 26.948 0 0 1-.829 3.062z"/><path data-name="Path 163" d="M280.91 135.126c-3.737 9.861-10.519 18.372-12.768 28.751-.449 2.093-.709 4.238-.969 6.383 2.283-10.379 9.013-18.822 12.75-28.647a51.335 51.335 0 0 0 3.079-13.839 50.555 50.555 0 0 1-2.093 7.352z"/></g></g></svg>