<svg id="bootstrap-4" xmlns="http://www.w3.org/2000/svg" width="100" height="100" viewBox="0 0 100 100">
  <path id="Path_79" data-name="Path 79" d="M0,87.106A12.894,12.894,0,0,0,12.894,100H87.105A12.894,12.894,0,0,0,100,87.106V12.895A12.894,12.894,0,0,0,87.106,0H12.895A12.894,12.894,0,0,0,0,12.894V87.105Z" fill="#563d7c"/>
  <path id="Path_80" data-name="Path 80" d="M85.389,75.007V60.846H97.854a19.39,19.39,0,0,1,3.434.3,8.572,8.572,0,0,1,2.926,1.06,5.653,5.653,0,0,1,2.035,2.12,7.04,7.04,0,0,1,.763,3.477q0,3.816-2.29,5.512a9.57,9.57,0,0,1-5.851,1.7ZM72.075,50.5v60.547h29.341a30.955,30.955,0,0,0,7.929-1.018,21.206,21.206,0,0,0,6.869-3.137,15.455,15.455,0,0,0,4.791-5.47,18.508,18.508,0,0,0-.975-17.638,14.553,14.553,0,0,0-8.353-5.639,15.091,15.091,0,0,0,6.148-5,13.263,13.263,0,0,0,2.077-7.632,16.241,16.241,0,0,0-1.4-7.123,11.636,11.636,0,0,0-3.943-4.621,17.019,17.019,0,0,0-6.105-2.5,37.693,37.693,0,0,0-7.886-.763Zm13.314,50.2V84.08h14.5a11.218,11.218,0,0,1,6.954,1.993q2.629,1.993,2.629,6.657a8.321,8.321,0,0,1-.806,3.9,6.4,6.4,0,0,1-2.162,2.417,9.158,9.158,0,0,1-3.137,1.272,17.8,17.8,0,0,1-3.731.381H85.389Z" transform="translate(-43.921 -30.773)" fill="#fff"/>
</svg>
