<svg xmlns="http://www.w3.org/2000/svg" width="88.175" height="100" viewBox="0 0 88.175 100">
  <g id="CSS3_logo_and_wordmark" transform="translate(-193.633 -376.982)">
    <g id="g3013" transform="translate(193.633 376.982)">
      <path id="polygon2989" d="M162.808,100.62l-8.033,89.99-36.108,10.01-36.009-10-8.024-90Z" transform="translate(-74.633 -100.62)" fill="#264de4"/>
      <path id="polygon2991" d="M285.177,207.794l6.865-76.9H256v84.989Z" transform="translate(-211.913 -123.535)" fill="#2965f1"/>
      <path id="polygon2993" d="M150.31,268.217l.989,11.038H176V268.217Z" transform="translate(-131.914 -227.477)" fill="#ebebeb"/>
      <path id="polygon2995" d="M169.812,176.3h-27.68l1,11.039h26.676Z" transform="translate(-125.724 -157.907)" fill="#ebebeb"/>
      <path id="polygon2997" d="M180.618,359.928V348.443l-.048.013-12.294-3.32-.786-8.8H156.409l1.547,17.332,22.612,6.277Z" transform="translate(-136.531 -279.035)" fill="#ebebeb"/>
      <path id="polygon3005" d="M269.436,209.686,268.154,224l-12.311,3.323v11.484l22.63-6.272.166-1.865,2.594-29.061.269-2.964,1.993-22.342H255.843v11.039H271.4l-1,11.3h-14.55v11.038Z" transform="translate(-211.794 -157.907)" fill="#fff"/>
    </g>
  </g>
</svg>
