<svg xmlns="http://www.w3.org/2000/svg" xmlns:xlink="http://www.w3.org/1999/xlink" width="315.98" height="315.964" viewBox="0 0 315.98 315.964">
  <defs>
    <filter id="body" x="179.187" y="105.188" width="136.793" height="210.776" filterUnits="userSpaceOnUse">
      <feOffset dx="10" dy="10" input="SourceAlpha"/>
      <feGaussianBlur stdDeviation="10" result="blur"/>
      <feFlood flood-opacity="0.2"/>
      <feComposite operator="in" in2="blur"/>
      <feComposite in="SourceGraphic"/>
    </filter>
    <filter id="screen" x="200.706" y="128.011" width="73.264" height="150.952" filterUnits="userSpaceOnUse">
      <feOffset input="SourceAlpha"/>
      <feGaussianBlur stdDeviation="1" result="blur-2"/>
      <feFlood flood-opacity="0.039"/>
      <feComposite operator="in" in2="blur-2"/>
      <feComposite in="SourceGraphic"/>
    </filter>
    <clipPath id="clip-path">
      <rect id="Mask" width="3.725" height="3.724" fill="none"/>
    </clipPath>
    <filter id="body-2" x="89.61" y="40.938" width="136.793" height="214.854" filterUnits="userSpaceOnUse">
      <feOffset dx="10" dy="10" input="SourceAlpha"/>
      <feGaussianBlur stdDeviation="10" result="blur-3"/>
      <feFlood flood-opacity="0.2"/>
      <feComposite operator="in" in2="blur-3"/>
      <feComposite in="SourceGraphic"/>
    </filter>
    <filter id="screen-2" x="111.128" y="63.761" width="73.264" height="151.505" filterUnits="userSpaceOnUse">
      <feOffset input="SourceAlpha"/>
      <feGaussianBlur stdDeviation="1" result="blur-4"/>
      <feFlood flood-opacity="0.039"/>
      <feComposite operator="in" in2="blur-4"/>
      <feComposite in="SourceGraphic"/>
    </filter>
    <filter id="screen-3" x="111.128" y="63.761" width="73.264" height="151.505" filterUnits="userSpaceOnUse">
      <feOffset input="SourceAlpha"/>
      <feGaussianBlur stdDeviation="1" result="blur-5"/>
      <feFlood flood-opacity="0.039"/>
      <feComposite operator="in" in2="blur-5"/>
      <feComposite in="SourceGraphic"/>
    </filter>
    <filter id="Path_767" x="116.086" y="74.453" width="9.71" height="9.71" filterUnits="userSpaceOnUse">
      <feOffset dy="1" input="SourceAlpha"/>
      <feGaussianBlur stdDeviation="1" result="blur-6"/>
      <feFlood flood-opacity="0.231"/>
      <feComposite operator="in" in2="blur-6"/>
      <feComposite in="SourceGraphic"/>
    </filter>
    <filter id="Path_807" x="115.623" y="86.819" width="64.738" height="16.047" filterUnits="userSpaceOnUse">
      <feOffset dy="1" input="SourceAlpha"/>
      <feGaussianBlur stdDeviation="1" result="blur-7"/>
      <feFlood flood-opacity="0.341"/>
      <feComposite operator="in" in2="blur-7"/>
      <feComposite in="SourceGraphic"/>
    </filter>
    <filter id="Path_807-2" x="115.623" y="99.958" width="64.738" height="16.047" filterUnits="userSpaceOnUse">
      <feOffset dy="1" input="SourceAlpha"/>
      <feGaussianBlur stdDeviation="1" result="blur-8"/>
      <feFlood flood-opacity="0.341"/>
      <feComposite operator="in" in2="blur-8"/>
      <feComposite in="SourceGraphic"/>
    </filter>
    <filter id="Path_807-3" x="115.623" y="118.353" width="64.738" height="16.047" filterUnits="userSpaceOnUse">
      <feOffset dy="1" input="SourceAlpha"/>
      <feGaussianBlur stdDeviation="1" result="blur-9"/>
      <feFlood flood-opacity="0.341"/>
      <feComposite operator="in" in2="blur-9"/>
      <feComposite in="SourceGraphic"/>
    </filter>
    <filter id="Path_807-4" x="115.623" y="144.63" width="64.738" height="16.047" filterUnits="userSpaceOnUse">
      <feOffset dy="1" input="SourceAlpha"/>
      <feGaussianBlur stdDeviation="1" result="blur-10"/>
      <feFlood flood-opacity="0.341"/>
      <feComposite operator="in" in2="blur-10"/>
      <feComposite in="SourceGraphic"/>
    </filter>
    <filter id="Path_807-5" x="115.623" y="157.769" width="64.738" height="16.047" filterUnits="userSpaceOnUse">
      <feOffset dy="1" input="SourceAlpha"/>
      <feGaussianBlur stdDeviation="1" result="blur-11"/>
      <feFlood flood-opacity="0.341"/>
      <feComposite operator="in" in2="blur-11"/>
      <feComposite in="SourceGraphic"/>
    </filter>
    <filter id="Path_807-6" x="115.623" y="170.908" width="64.738" height="16.047" filterUnits="userSpaceOnUse">
      <feOffset dy="1" input="SourceAlpha"/>
      <feGaussianBlur stdDeviation="1" result="blur-12"/>
      <feFlood flood-opacity="0.341"/>
      <feComposite operator="in" in2="blur-12"/>
      <feComposite in="SourceGraphic"/>
    </filter>
    <filter id="Path_807-7" x="115.623" y="184.047" width="64.738" height="16.047" filterUnits="userSpaceOnUse">
      <feOffset dy="1" input="SourceAlpha"/>
      <feGaussianBlur stdDeviation="1" result="blur-13"/>
      <feFlood flood-opacity="0.341"/>
      <feComposite operator="in" in2="blur-13"/>
      <feComposite in="SourceGraphic"/>
    </filter>
    <filter id="Path_807-8" x="115.623" y="131.491" width="64.738" height="16.047" filterUnits="userSpaceOnUse">
      <feOffset dy="1" input="SourceAlpha"/>
      <feGaussianBlur stdDeviation="1" result="blur-14"/>
      <feFlood flood-opacity="0.341"/>
      <feComposite operator="in" in2="blur-14"/>
      <feComposite in="SourceGraphic"/>
    </filter>
    <filter id="Button_bg" x="159.61" y="186.226" width="27.156" height="27.156" filterUnits="userSpaceOnUse">
      <feOffset input="SourceAlpha"/>
      <feGaussianBlur stdDeviation="3" result="blur-15"/>
      <feFlood flood-opacity="0.122"/>
      <feComposite operator="in" in2="blur-15"/>
      <feComposite in="SourceGraphic"/>
    </filter>
    <filter id="Button_bg-2" x="159.61" y="192.226" width="27.156" height="27.156" filterUnits="userSpaceOnUse">
      <feOffset dy="6" input="SourceAlpha"/>
      <feGaussianBlur stdDeviation="3" result="blur-16"/>
      <feFlood flood-opacity="0.239"/>
      <feComposite operator="in" in2="blur-16"/>
      <feComposite in="SourceGraphic"/>
    </filter>
    <filter id="body-3" x="0" y="155.872" width="136.797" height="160.086" filterUnits="userSpaceOnUse">
      <feOffset dx="10" dy="10" input="SourceAlpha"/>
      <feGaussianBlur stdDeviation="10" result="blur-17"/>
      <feFlood flood-opacity="0.2"/>
      <feComposite operator="in" in2="blur-17"/>
      <feComposite in="SourceGraphic"/>
    </filter>
    <filter id="screen-4" x="21.522" y="178.694" width="73.264" height="100.247" filterUnits="userSpaceOnUse">
      <feOffset input="SourceAlpha"/>
      <feGaussianBlur stdDeviation="1" result="blur-18"/>
      <feFlood flood-opacity="0.039"/>
      <feComposite operator="in" in2="blur-18"/>
      <feComposite in="SourceGraphic"/>
    </filter>
    <filter id="body-4" x="0.01" y="0.01" width="136.793" height="196.14" filterUnits="userSpaceOnUse">
      <feOffset dx="10" dy="10" input="SourceAlpha"/>
      <feGaussianBlur stdDeviation="10" result="blur-19"/>
      <feFlood flood-opacity="0.2"/>
      <feComposite operator="in" in2="blur-19"/>
      <feComposite in="SourceGraphic"/>
    </filter>
    <filter id="screen-5" x="21.528" y="17.154" width="73.264" height="137.312" filterUnits="userSpaceOnUse">
      <feOffset input="SourceAlpha"/>
      <feGaussianBlur stdDeviation="1" result="blur-20"/>
      <feFlood flood-opacity="0.039"/>
      <feComposite operator="in" in2="blur-20"/>
      <feComposite in="SourceGraphic"/>
    </filter>
    <filter id="body-5" x="179.187" y="0" width="136.793" height="153.146" filterUnits="userSpaceOnUse">
      <feOffset dx="10" dy="10" input="SourceAlpha"/>
      <feGaussianBlur stdDeviation="10" result="blur-21"/>
      <feFlood flood-opacity="0.2"/>
      <feComposite operator="in" in2="blur-21"/>
      <feComposite in="SourceGraphic"/>
    </filter>
    <filter id="screen-6" x="200.795" y="16.964" width="73.264" height="95.655" filterUnits="userSpaceOnUse">
      <feOffset input="SourceAlpha"/>
      <feGaussianBlur stdDeviation="1" result="blur-22"/>
      <feFlood flood-opacity="0.039"/>
      <feComposite operator="in" in2="blur-22"/>
      <feComposite in="SourceGraphic"/>
    </filter>
    <filter id="Path_807-9" x="203.611" y="18.036" width="67.273" height="9.383" filterUnits="userSpaceOnUse">
      <feOffset dy="1" input="SourceAlpha"/>
      <feGaussianBlur stdDeviation="1" result="blur-23"/>
      <feFlood flood-opacity="0.341"/>
      <feComposite operator="in" in2="blur-23"/>
      <feComposite in="SourceGraphic"/>
    </filter>
    <filter id="Path_807-10" x="203.611" y="24.644" width="67.273" height="16.481" filterUnits="userSpaceOnUse">
      <feOffset dy="1" input="SourceAlpha"/>
      <feGaussianBlur stdDeviation="1" result="blur-24"/>
      <feFlood flood-opacity="0.341"/>
      <feComposite operator="in" in2="blur-24"/>
      <feComposite in="SourceGraphic"/>
    </filter>
    <filter id="Button_bg-3" x="249.765" y="87.696" width="27.53" height="27.53" filterUnits="userSpaceOnUse">
      <feOffset input="SourceAlpha"/>
      <feGaussianBlur stdDeviation="3" result="blur-25"/>
      <feFlood flood-opacity="0.122"/>
      <feComposite operator="in" in2="blur-25"/>
      <feComposite in="SourceGraphic"/>
    </filter>
    <filter id="Button_bg-4" x="249.765" y="93.696" width="27.53" height="27.53" filterUnits="userSpaceOnUse">
      <feOffset dy="6" input="SourceAlpha"/>
      <feGaussianBlur stdDeviation="3" result="blur-26"/>
      <feFlood flood-opacity="0.239"/>
      <feComposite operator="in" in2="blur-26"/>
      <feComposite in="SourceGraphic"/>
    </filter>
    <filter id="Path_807-11" x="24.69" y="26.018" width="67.273" height="16.481" filterUnits="userSpaceOnUse">
      <feOffset dy="1" input="SourceAlpha"/>
      <feGaussianBlur stdDeviation="1" result="blur-27"/>
      <feFlood flood-opacity="0.341"/>
      <feComposite operator="in" in2="blur-27"/>
      <feComposite in="SourceGraphic"/>
    </filter>
    <filter id="Path_807-12" x="24.69" y="39.724" width="67.273" height="16.481" filterUnits="userSpaceOnUse">
      <feOffset dy="1" input="SourceAlpha"/>
      <feGaussianBlur stdDeviation="1" result="blur-28"/>
      <feFlood flood-opacity="0.341"/>
      <feComposite operator="in" in2="blur-28"/>
      <feComposite in="SourceGraphic"/>
    </filter>
    <filter id="Path_807-13" x="24.69" y="53.43" width="67.273" height="16.481" filterUnits="userSpaceOnUse">
      <feOffset dy="1" input="SourceAlpha"/>
      <feGaussianBlur stdDeviation="1" result="blur-29"/>
      <feFlood flood-opacity="0.341"/>
      <feComposite operator="in" in2="blur-29"/>
      <feComposite in="SourceGraphic"/>
    </filter>
    <filter id="Path_807-14" x="24.69" y="66.33" width="67.273" height="16.481" filterUnits="userSpaceOnUse">
      <feOffset dy="1" input="SourceAlpha"/>
      <feGaussianBlur stdDeviation="1" result="blur-30"/>
      <feFlood flood-opacity="0.341"/>
      <feComposite operator="in" in2="blur-30"/>
      <feComposite in="SourceGraphic"/>
    </filter>
    <filter id="Button_bg-5" x="70.845" y="130.188" width="27.53" height="27.53" filterUnits="userSpaceOnUse">
      <feOffset input="SourceAlpha"/>
      <feGaussianBlur stdDeviation="3" result="blur-31"/>
      <feFlood flood-opacity="0.122"/>
      <feComposite operator="in" in2="blur-31"/>
      <feComposite in="SourceGraphic"/>
    </filter>
    <filter id="Button_bg-6" x="70.845" y="136.188" width="27.53" height="27.53" filterUnits="userSpaceOnUse">
      <feOffset dy="6" input="SourceAlpha"/>
      <feGaussianBlur stdDeviation="3" result="blur-32"/>
      <feFlood flood-opacity="0.239"/>
      <feComposite operator="in" in2="blur-32"/>
      <feComposite in="SourceGraphic"/>
    </filter>
    <clipPath id="clip">
      <use xlink:href="#fill"/>
    </clipPath>
  </defs>
  <g id="Geologger" transform="translate(-2334.984 -460.966)">
    <g id="Group_822" data-name="Group 822" transform="translate(2354.984 480.93)">
      <g id="Group_813" data-name="Group 813" transform="translate(179.187 105.224)">
        <g id="Group_788" data-name="Group 788" transform="translate(0 0)">
          <path id="bottom" d="M.634,0h23.3a.634.634,0,1,1,0,1.268H.634A.634.634,0,1,1,.634,0Z" transform="translate(26.073 148.714)" fill="#f0f3f5"/>
          <g transform="matrix(1, 0, 0, 1, -199.19, -125.19)" filter="url(#body)">
            <path id="body-6" data-name="body" d="M13.988,0H62.568c8,0,14.225,3.194,14.225,13.984,0,17.114,0,119.342,0,125.1,0,3.347-.169,8.2-2.888,11.679-43.288,0-28.948.02-71.105,0-1.681-2.053-2.8-5.1-2.8-9.262V13.984C0,2.468,7.2,0,13.988,0Z" transform="translate(199.19 125.19)" fill="#edf3f6"/>
          </g>
          <g transform="matrix(1, 0, 0, 1, -199.19, -125.19)" filter="url(#screen)">
            <path id="screen-7" data-name="screen" d="M48.436,5.467a4.122,4.122,0,0,0,4.083-4.2c0-.924.266-1.228,1.308-1.228h6.025c3.448,0,7.412,1.585,7.412,7.685s0,125.183,0,130.095c0,3.561-1.4,6.037-4.448,7.132-29.273,0-21.666-.024-58.555,0C1.1,143.826,0,140.989,0,137.938V7.289C0,2.3,3.567,0,6.9,0h6.7c.951,0,1.149.555,1.149,1.188a4.145,4.145,0,0,0,4.281,4.239C22.355,5.427,44.671,5.467,48.436,5.467Z" transform="translate(203.71 131.01)" fill="#fff"/>
          </g>
          <path id="Rectangle_3" data-name="Rectangle 3" d="M3.408,2.06H.555A.555.555,0,0,1,0,1.505V.555A.555.555,0,0,1,.555,0H3.408a.555.555,0,0,1,.555.555v.951A.555.555,0,0,1,3.408,2.06ZM.555.158a.4.4,0,0,0-.4.4v.951a.4.4,0,0,0,.4.4H3.408a.4.4,0,0,0,.4-.4V.555a.4.4,0,0,0-.4-.4Z" transform="translate(64.905 8.953)" fill="#f7f8fa"/>
          <rect id="Rectangle_3-2" data-name="Rectangle 3" width="2.305" height="1.426" rx="0.713" transform="translate(65.222 9.27)" fill="#f7f8fa"/>
          <path id="Combined_Shape" data-name="Combined Shape" d="M0,.614H0V0A.317.317,0,0,1,.238.307.317.317,0,0,1,0,.614Z" transform="translate(69.106 9.676)" fill="#f7f8fa"/>
          <rect id="Mask-4" data-name="Mask" width="3.725" height="3.724" transform="translate(60.072 8.417) rotate(-45)" fill="none"/>
          <g id="wifi_black" transform="translate(60.072 8.417) rotate(-45)" clip-path="url(#clip-path)">
            <g id="Group" transform="translate(-2.06 1.664)">
              <ellipse id="Oval_3" data-name="Oval 3" cx="0.713" cy="0.713" rx="0.713" ry="0.713" transform="translate(1.347 1.347)" fill="#f7f8fa"/>
              <path id="Oval_3-2" data-name="Oval 3" d="M2.061,4.12a2.06,2.06,0,0,1-.8-3.958,2.061,2.061,0,0,1,1.6,3.8A2.048,2.048,0,0,1,2.061,4.12Zm0-3.645A1.585,1.585,0,1,0,3.645,2.06,1.587,1.587,0,0,0,2.061.475Z" transform="translate(0 0)" fill="#f7f8fa"/>
              <path id="Oval_3-3" data-name="Oval 3" d="M1.347,2.694A1.347,1.347,0,0,1,.395.394,1.347,1.347,0,1,1,2.3,2.3,1.339,1.339,0,0,1,1.347,2.694Zm0-2.3a.951.951,0,1,0,.951.951A.952.952,0,0,0,1.347.4Z" transform="translate(0.713 0.713)" fill="#f7f8fa"/>
            </g>
          </g>
          <path id="Combined_Shape-2" data-name="Combined Shape" d="M2.774,1.981a.158.158,0,0,1-.159-.158V.158A.158.158,0,0,1,2.774,0h.317a.158.158,0,0,1,.159.158V1.822a.158.158,0,0,1-.159.158Zm-.872,0a.158.158,0,0,1-.159-.158V.555A.158.158,0,0,1,1.9.4h.317a.158.158,0,0,1,.159.158V1.822a.158.158,0,0,1-.159.158Zm-.872,0a.158.158,0,0,1-.159-.158V.951A.158.158,0,0,1,1.03.792h.317a.158.158,0,0,1,.159.158v.872a.158.158,0,0,1-.159.158Zm-.872,0A.158.158,0,0,1,0,1.822V1.347a.158.158,0,0,1,.159-.158H.475a.158.158,0,0,1,.159.158v.475a.158.158,0,0,1-.159.158Z" transform="translate(57.139 9.032)" fill="#f7f8fa"/>
          <path id="receiver" d="M.674,0H8.757a.673.673,0,1,1,0,1.347H.674A.673.673,0,1,1,.674,0Z" transform="translate(33.443 6.735)" fill="#fff"/>
          <ellipse id="camera" cx="1.109" cy="1.109" rx="1.109" ry="1.109" transform="translate(45.331 6.259)" fill="#fff"/>
          <g id="Group_792" data-name="Group 792" transform="translate(10.046 7.885)">
            <g id="Group_123" data-name="Group 123" transform="translate(0 0)">
              <g id="Group_122" data-name="Group 122">
                <text id="_2:00" data-name="2:00" transform="translate(0 1)" fill="#f7f8fa" font-size="1" font-family="SegoeUI-Semibold, Segoe UI" font-weight="600"><tspan x="0" y="0">2:00</tspan></text>
              </g>
              <g id="Path_771" data-name="Path 771" transform="translate(5.287 0.646)" fill="none">
                <path d="M.028.722A9.7,9.7,0,0,1,1.545,0s.177-.006.129.158A6.125,6.125,0,0,1,1,1.7C.774,1.865.83.861.83.861S-.18.928.028.722Z" stroke="none"/>
                <path d="M 1.547424674034119 -1.311302185058594e-06 C 1.56718111038208 -1.9073486328125e-06 1.719271779060364 0.004927754402160645 1.67391049861908 0.1583119630813599 C 1.568700551986694 0.5148019790649414 1.171700477600098 1.562942028045654 0.9978805184364319 1.695072054862976 C 0.9804659485816956 1.708308935165405 0.9647296667098999 1.714417815208435 0.9505424499511719 1.714417815208435 C 0.7827069759368896 1.714417815208435 0.8296605348587036 0.8607220053672791 0.8296605348587036 0.8607220053672791 C 0.8296605348587036 0.8607220053672791 0.67270827293396 0.8711009621620178 0.4953712224960327 0.8711009621620178 C 0.2228026390075684 0.8711009621620178 -0.09799456596374512 0.8465977907180786 0.02837049961090088 0.7222319841384888 C 0.2369605302810669 0.5169520378112793 1.54533052444458 2.205371856689453e-05 1.54533052444458 2.205371856689453e-05 C 1.54533052444458 2.205371856689453e-05 1.546066403388977 -1.311302185058594e-06 1.547424674034119 -1.311302185058594e-06 Z" stroke="none" fill="#f7f8fa"/>
              </g>
            </g>
          </g>
        </g>
        <g id="Group_789" data-name="Group 789" transform="translate(12.183 48.379)">
          <g id="Group_779" data-name="Group 779" transform="translate(0 41.641)">
            <g id="Rectangle_29" data-name="Rectangle 29" fill="none" stroke="#167db8" stroke-width="0.5">
              <rect width="57.34" height="10.367" rx="1" stroke="none"/>
              <rect x="0.25" y="0.25" width="56.84" height="9.867" rx="0.75" fill="none"/>
            </g>
            <text id="Log_In" data-name="Log In" transform="translate(24.32 5.2)" fill="#167db8" font-size="2" font-family="SegoeUI-Bold, Segoe UI" font-weight="700" letter-spacing="0.02em"><tspan x="0" y="0">Log In</tspan></text>
          </g>
          <g id="Group_667" data-name="Group 667" transform="translate(0.104 25.534)">
            <g id="Group_666" data-name="Group 666" transform="translate(8.063)">
              <g id="Rectangle_1" data-name="Rectangle 1" fill="#fff" stroke="#ddd" stroke-width="0.5">
                <path d="M0,0H48.468a1,1,0,0,1,1,1V6.3a1,1,0,0,1-1,1H0a0,0,0,0,1,0,0V0A0,0,0,0,1,0,0Z" stroke="none"/>
                <path d="M.5.25H48.468a.75.75,0,0,1,.75.75V6.3a.75.75,0,0,1-.75.75H.5A.25.25,0,0,1,.25,6.8V.5A.25.25,0,0,1,.5.25Z" fill="none"/>
              </g>
              <g id="Group_665" data-name="Group 665" transform="translate(1.92 3.264)">
                <rect id="Rectangle_26" data-name="Rectangle 26" width="0.768" height="0.768" rx="0.384" fill="#818a91"/>
                <rect id="Rectangle_26-2" data-name="Rectangle 26" width="0.768" height="0.768" rx="0.384" transform="translate(1.152)" fill="#818a91"/>
                <rect id="Rectangle_26-3" data-name="Rectangle 26" width="0.768" height="0.768" rx="0.384" transform="translate(2.304)" fill="#818a91"/>
                <rect id="Rectangle_26-4" data-name="Rectangle 26" width="0.768" height="0.768" rx="0.384" transform="translate(3.456)" fill="#818a91"/>
                <rect id="Rectangle_26-5" data-name="Rectangle 26" width="0.768" height="0.768" rx="0.384" transform="translate(4.608)" fill="#818a91"/>
                <rect id="Rectangle_26-6" data-name="Rectangle 26" width="0.768" height="0.768" rx="0.384" transform="translate(5.759)" fill="#818a91"/>
                <rect id="Rectangle_26-7" data-name="Rectangle 26" width="0.768" height="0.768" rx="0.384" transform="translate(6.911)" fill="#818a91"/>
                <rect id="Rectangle_26-8" data-name="Rectangle 26" width="0.768" height="0.768" rx="0.384" transform="translate(8.063)" fill="#818a91"/>
                <rect id="Rectangle_26-9" data-name="Rectangle 26" width="0.768" height="0.768" rx="0.384" transform="translate(9.215)" fill="#818a91"/>
                <rect id="Rectangle_26-10" data-name="Rectangle 26" width="0.768" height="0.768" rx="0.384" transform="translate(10.367)" fill="#818a91"/>
                <rect id="Rectangle_26-11" data-name="Rectangle 26" width="0.768" height="0.768" rx="0.384" transform="translate(11.519)" fill="#818a91"/>
              </g>
            </g>
            <g id="Group_664" data-name="Group 664">
              <g id="Rectangle_226" data-name="Rectangle 226" fill="#f6f7f8" stroke="#ddd" stroke-width="0.5">
                <path d="M1,0H8.063a0,0,0,0,1,0,0V7.3a0,0,0,0,1,0,0H1a1,1,0,0,1-1-1V1A1,1,0,0,1,1,0Z" stroke="none"/>
                <path d="M1,.25H7.563a.25.25,0,0,1,.25.25V6.8a.25.25,0,0,1-.25.25H1A.75.75,0,0,1,.25,6.3V1A.75.75,0,0,1,1,.25Z" fill="none"/>
              </g>
              <path id="ic_vpn_key_24px" d="M2.864,6.746A.933.933,0,0,0,1.96,6a.96.96,0,1,0,.9,1.28h.7v.64h.519L4.1,7.28H4.52V6.746Zm-.9.571a.478.478,0,0,1-.424-.376.5.5,0,0,1,.424-.4.488.488,0,0,1,.395.417A.426.426,0,0,1,1.96,7.317Z" transform="translate(1.304 -3.312)" fill="#ddd"/>
            </g>
          </g>
          <g id="Rectangle_1-2" data-name="Rectangle 1" transform="translate(8.168 14.975)" fill="#fff" stroke="#ddd" stroke-width="0.5">
            <path d="M0,0H48.468a1,1,0,0,1,1,1V6.3a1,1,0,0,1-1,1H0a0,0,0,0,1,0,0V0A0,0,0,0,1,0,0Z" stroke="none"/>
            <path d="M.5.25H48.468a.75.75,0,0,1,.75.75V6.3a.75.75,0,0,1-.75.75H.5A.25.25,0,0,1,.25,6.8V.5A.25.25,0,0,1,.5.25Z" fill="none"/>
          </g>
          <g id="Path_877" data-name="Path 877" transform="translate(0.104 14.975)" fill="#f6f7f8">
            <path d="M 7.813244342803955 7.0453200340271 L 0.7679243087768555 7.0453200340271 C 0.4823443293571472 7.0453200340271 0.2500043213367462 6.812980175018311 0.2500043213367462 6.527390003204346 L 0.2500043213367462 0.7679300308227539 C 0.2500043213367462 0.482340008020401 0.4823443293571472 0.2500000298023224 0.7679243087768555 0.2500000298023224 L 7.813244342803955 0.2500000298023224 L 7.813244342803955 7.0453200340271 Z" stroke="none"/>
            <path d="M 0.7679243087768555 0.5 C 0.6201944351196289 0.5 0.5000042915344238 0.6201901435852051 0.5000042915344238 0.7679300308227539 L 0.5000042915344238 6.527390003204346 C 0.5000042915344238 6.675129890441895 0.6201944351196289 6.7953200340271 0.7679243087768555 6.7953200340271 L 7.563244342803955 6.7953200340271 L 7.563244342803955 0.5 L 0.7679243087768555 0.5 M 0.7679243087768555 0 L 8.063243865966797 0 L 8.063243865966797 7.2953200340271 L 0.7679243087768555 7.2953200340271 C 0.3438143730163574 7.2953200340271 4.76837158203125e-06 6.951509952545166 4.76837158203125e-06 6.527390003204346 L 4.76837158203125e-06 0.7679300308227539 C 4.76837158203125e-06 0.3438100814819336 0.3438143730163574 0 0.7679243087768555 0 Z" stroke="none" fill="#ddd"/>
          </g>
          <path id="ic_perm_identity_24px" d="M5.536,4.365a.4.4,0,1,1-.4.4.4.4,0,0,1,.4-.4m0,1.728c.57,0,1.171.28,1.171.4v.211H4.365V6.5c0-.123.6-.4,1.171-.4M5.536,4a.768.768,0,1,0,.768.768A.768.768,0,0,0,5.536,4Zm0,1.728C5.023,5.728,4,5.985,4,6.5v.576H7.072V6.5C7.072,5.985,6.048,5.728,5.536,5.728Z" transform="translate(-1.4 13.086)" fill="#ddd"/>
          <text id="Email_address" data-name="Email address" transform="translate(10.178 18.086)" fill="#818a91" font-size="1" font-family="ArialMT, Arial"><tspan x="0" y="0">Email address</tspan></text>
          <text id="Need_an_account_" data-name="Need an account?" transform="translate(0.104 55.011)" fill="#003d7d" font-size="1" font-family="ArialMT, Arial"><tspan x="0" y="0">Need an account?</tspan></text>
          <text id="Register" transform="translate(22.255 55.011)" fill="#167db8" font-size="1" font-family="ArialMT, Arial"><tspan x="0" y="0">Register</tspan></text>
          <text id="Forgot_your_password_" data-name="Forgot your password?" transform="translate(30.885 36.133)" fill="#167db8" font-size="1" font-family="ArialMT, Arial"><tspan x="0" y="0">Forgot your password?</tspan></text>
          <g id="Group_745" data-name="Group 745" transform="translate(13.031 0)">
            <text id="logger" transform="translate(11.455 5)" fill="#003d7d" font-size="5" font-family="SegoeUI-Semibold, Segoe UI" font-weight="600"><tspan x="0" y="0">logger</tspan></text>
            <text id="Geo" transform="translate(0 6)" fill="#177abb" font-size="6" font-family="SegoeUI-Semibold, Segoe UI" font-weight="600"><tspan x="0" y="0">Geo</tspan></text>
          </g>
        </g>
      </g>
      <g id="Group_816" data-name="Group 816" transform="translate(89.61 40.974)">
        <g id="Group_810" data-name="Group 810" transform="translate(0 0)">
          <path id="bottom-2" data-name="bottom" d="M.634,0h23.3a.634.634,0,1,1,0,1.268H.634A.634.634,0,1,1,.634,0Z" transform="translate(26.073 148.714)" fill="#f0f3f5"/>
          <g transform="matrix(1, 0, 0, 1, -109.61, -60.94)" filter="url(#body-2)">
            <path id="body-7" data-name="body" d="M13.988,0H62.568c8,0,14.225,3.194,14.225,13.984,0,17.114,0,119.342,0,125.1s-.277,15.767-13.512,15.767H12.046C6.274,154.854,0,151.374,0,141.5V13.984C0,2.468,7.2,0,13.988,0Z" transform="translate(109.61 60.94)" fill="#edf3f6"/>
          </g>
          <g transform="matrix(1, 0, 0, 1, -109.61, -60.94)" filter="url(#screen-2)">
            <path id="screen-8" data-name="screen" d="M48.436,5.467a4.122,4.122,0,0,0,4.083-4.2c0-.924.266-1.228,1.308-1.228h6.025c3.448,0,7.412,1.585,7.412,7.685s0,125.183,0,130.095-2.616,7.685-8.443,7.685H7.808C1.863,145.5,0,141.9,0,137.938V7.289C0,2.3,3.567,0,6.9,0h6.7c.951,0,1.149.555,1.149,1.188a4.145,4.145,0,0,0,4.281,4.239C22.355,5.427,44.671,5.467,48.436,5.467Z" transform="translate(114.13 66.76)" fill="#fff"/>
          </g>
          <g transform="matrix(1, 0, 0, 1, -109.61, -60.94)" filter="url(#screen-3)">
            <path id="screen-9" data-name="screen" d="M48.436,5.467a4.122,4.122,0,0,0,4.083-4.2c0-.924.266-1.228,1.308-1.228h6.025c3.448,0,7.412,1.585,7.412,7.685s0,125.183,0,130.095-2.616,7.685-8.443,7.685H7.808C1.863,145.5,0,141.9,0,137.938V7.289C0,2.3,3.567,0,6.9,0h6.7c.951,0,1.149.555,1.149,1.188a4.145,4.145,0,0,0,4.281,4.239C22.355,5.427,44.671,5.467,48.436,5.467Z" transform="translate(114.13 66.76)" fill="#fff"/>
          </g>
          <path id="Rectangle_3-3" data-name="Rectangle 3" d="M3.408,2.06H.555A.555.555,0,0,1,0,1.505V.555A.555.555,0,0,1,.555,0H3.408a.555.555,0,0,1,.555.555v.951A.555.555,0,0,1,3.408,2.06ZM.555.158a.4.4,0,0,0-.4.4v.951a.4.4,0,0,0,.4.4H3.408a.4.4,0,0,0,.4-.4V.555a.4.4,0,0,0-.4-.4Z" transform="translate(64.905 8.953)" fill="#f7f8fa"/>
          <rect id="Rectangle_3-4" data-name="Rectangle 3" width="2.305" height="1.426" rx="0.713" transform="translate(65.222 9.27)" fill="#f7f8fa"/>
          <path id="Combined_Shape-3" data-name="Combined Shape" d="M0,.614H0V0A.317.317,0,0,1,.238.307.317.317,0,0,1,0,.614Z" transform="translate(69.106 9.676)" fill="#f7f8fa"/>
          <rect id="Mask-5" data-name="Mask" width="3.725" height="3.724" transform="translate(60.072 8.417) rotate(-45)" fill="none"/>
          <g id="wifi_black-2" data-name="wifi_black" transform="translate(60.072 8.417) rotate(-45)" clip-path="url(#clip-path)">
            <g id="Group-2" data-name="Group" transform="translate(-2.06 1.664)">
              <ellipse id="Oval_3-4" data-name="Oval 3" cx="0.713" cy="0.713" rx="0.713" ry="0.713" transform="translate(1.347 1.347)" fill="#f7f8fa"/>
              <path id="Oval_3-5" data-name="Oval 3" d="M2.061,4.12a2.06,2.06,0,0,1-.8-3.958,2.061,2.061,0,0,1,1.6,3.8A2.048,2.048,0,0,1,2.061,4.12Zm0-3.645A1.585,1.585,0,1,0,3.645,2.06,1.587,1.587,0,0,0,2.061.475Z" transform="translate(0 0)" fill="#f7f8fa"/>
              <path id="Oval_3-6" data-name="Oval 3" d="M1.347,2.694A1.347,1.347,0,0,1,.395.394,1.347,1.347,0,1,1,2.3,2.3,1.339,1.339,0,0,1,1.347,2.694Zm0-2.3a.951.951,0,1,0,.951.951A.952.952,0,0,0,1.347.4Z" transform="translate(0.713 0.713)" fill="#f7f8fa"/>
            </g>
          </g>
          <path id="Combined_Shape-4" data-name="Combined Shape" d="M2.774,1.981a.158.158,0,0,1-.159-.158V.158A.158.158,0,0,1,2.774,0h.317a.158.158,0,0,1,.159.158V1.822a.158.158,0,0,1-.159.158Zm-.872,0a.158.158,0,0,1-.159-.158V.555A.158.158,0,0,1,1.9.4h.317a.158.158,0,0,1,.159.158V1.822a.158.158,0,0,1-.159.158Zm-.872,0a.158.158,0,0,1-.159-.158V.951A.158.158,0,0,1,1.03.792h.317a.158.158,0,0,1,.159.158v.872a.158.158,0,0,1-.159.158Zm-.872,0A.158.158,0,0,1,0,1.822V1.347a.158.158,0,0,1,.159-.158H.475a.158.158,0,0,1,.159.158v.475a.158.158,0,0,1-.159.158Z" transform="translate(57.139 9.032)" fill="#f7f8fa"/>
          <path id="receiver-2" data-name="receiver" d="M.674,0H8.757a.673.673,0,1,1,0,1.347H.674A.673.673,0,1,1,.674,0Z" transform="translate(33.443 6.735)" fill="#fff"/>
          <ellipse id="camera-2" data-name="camera" cx="1.109" cy="1.109" rx="1.109" ry="1.109" transform="translate(45.331 6.259)" fill="#fff"/>
          <g id="Group_792-2" data-name="Group 792" transform="translate(10.046 7.885)">
            <g id="Group_123-2" data-name="Group 123" transform="translate(0 0)">
              <g id="Group_122-2" data-name="Group 122">
                <text id="_2:00-2" data-name="2:00" transform="translate(0 1)" fill="#f7f8fa" font-size="1" font-family="SegoeUI-Semibold, Segoe UI" font-weight="600"><tspan x="0" y="0">2:00</tspan></text>
              </g>
              <g id="Path_771-2" data-name="Path 771" transform="translate(5.287 0.646)" fill="none">
                <path d="M.028.722A9.7,9.7,0,0,1,1.545,0s.177-.006.129.158A6.125,6.125,0,0,1,1,1.7C.774,1.865.83.861.83.861S-.18.928.028.722Z" stroke="none"/>
                <path d="M 1.547424674034119 -1.311302185058594e-06 C 1.56718111038208 -1.9073486328125e-06 1.719271779060364 0.004927754402160645 1.67391049861908 0.1583119630813599 C 1.568700551986694 0.5148019790649414 1.171700477600098 1.562942028045654 0.9978805184364319 1.695072054862976 C 0.9804659485816956 1.708308935165405 0.9647296667098999 1.714417815208435 0.9505424499511719 1.714417815208435 C 0.7827069759368896 1.714417815208435 0.8296605348587036 0.8607220053672791 0.8296605348587036 0.8607220053672791 C 0.8296605348587036 0.8607220053672791 0.67270827293396 0.8711009621620178 0.4953712224960327 0.8711009621620178 C 0.2228026390075684 0.8711009621620178 -0.09799456596374512 0.8465977907180786 0.02837049961090088 0.7222319841384888 C 0.2369605302810669 0.5169520378112793 1.54533052444458 2.205371856689453e-05 1.54533052444458 2.205371856689453e-05 C 1.54533052444458 2.205371856689453e-05 1.546066403388977 -1.311302185058594e-06 1.547424674034119 -1.311302185058594e-06 Z" stroke="none" fill="#f7f8fa"/>
              </g>
            </g>
          </g>
        </g>
        <g id="Group_812" data-name="Group 812" transform="translate(6.385 14.261)">
          <g id="Group_117" data-name="Group 117" transform="translate(0 6.478)">
            <g id="Rectangle_246" data-name="Rectangle 246" fill="#fff" stroke="#b2b2b2" stroke-width="1">
              <rect id="fill" width="63.994" height="0.077" stroke="none"/>
              <path d="M0,-0.4227125197649002h63.99403762817383M63.49403762817383,0v0.07728748023509979M63.99403762817383,0.5h-63.99403762817383M0.5,0.07728748023509979v-0.07728748023509979" fill="none" clip-path="url(#clip)"/>
            </g>
          </g>
          <g id="Group_134" data-name="Group 134" transform="translate(24.335)">
            <text id="logger-2" data-name="logger" transform="translate(6.147 2)" fill="#003d7d" font-size="2" font-family="SegoeUI-Semibold, Segoe UI" font-weight="600"><tspan x="0" y="0">logger</tspan></text>
            <text id="Geo-2" data-name="Geo" transform="translate(0 2)" fill="#177abb" font-size="2" font-family="SegoeUI-Semibold, Segoe UI" font-weight="600"><tspan x="0" y="0">Geo</tspan></text>
          </g>
          <g id="Avatar" transform="translate(3.091 1.253)">
            <g id="Avatar-2" data-name="Avatar">
              <g transform="matrix(1, 0, 0, 1, -119.09, -76.45)" filter="url(#Path_767)">
                <path id="Path_767-2" data-name="Path 767" d="M1.855,0A1.855,1.855,0,1,1,0,1.855,1.855,1.855,0,0,1,1.855,0Z" transform="translate(119.09 76.45)" fill="#177abb"/>
              </g>
              <path id="Path_180" data-name="Path 180" d="M862.978,134.048l-.481.513s-.617-.247-.552-.331a.477.477,0,0,0,.007-.25c-.023-.18-.071-.387-.071-.387s1.078-.175.987.006a.3.3,0,0,0-.007.216A.812.812,0,0,0,862.978,134.048Z" transform="translate(-860.505 -131.7)" fill="#fbbebe"/>
              <path id="Path_181" data-name="Path 181" d="M862.867,133.6c-.034.067-.049.073-.028.145a.8.8,0,0,1-.543.317.769.769,0,0,1-.344-.081c-.023-.18-.071-.387-.071-.387S862.958,133.418,862.867,133.6Z" transform="translate(-860.505 -131.7)" opacity="0.1"/>
              <path id="Path_182" data-name="Path 182" d="M842.261,73.477a.773.773,0,1,1-1.546,0s0-.007,0-.011a.773.773,0,1,1,1.546.011Z" transform="translate(-839.698 -71.908)" fill="#fbbebe"/>
              <path id="Path_183" data-name="Path 183" d="M834.746,168.507l-.6.279-.084.636a1.822,1.822,0,0,0,1.766.078l-.012-.61-.1-.331-.279-.169-.286.228-.135.019Z" transform="translate(-833.164 -165.983)" fill="#e7effd"/>
              <path id="Path_184" data-name="Path 184" d="M871.558,182.073s.172.2.169.247-.01.143-.01.143l-.13.263s-.045.206-.064.33c0,.017.135.021.135.021a.574.574,0,0,0,.106.011c.023,0,.076.013.078-.011.015-.194.031-.4.031-.442a2.662,2.662,0,0,0-.036-.283.333.333,0,0,1,.218-.24c.175-.045-.013-.01-.013-.01l-.1-.081-.088.036S871.61,181.982,871.558,182.073Z" transform="translate(-869.985 -179.383)" opacity="0.1"/>
              <path id="Path_185" data-name="Path 185" d="M870.588,180.952s.172.2.169.247-.01.143-.01.143l-.13.263a3.437,3.437,0,0,0-.065.353.851.851,0,0,0,.147.022c.03,0,.064.005.112.007.018,0,.034,0,.042,0s.016.007.017-.013c.016-.2.032-.419.032-.46a2.66,2.66,0,0,0-.036-.283.333.333,0,0,1,.217-.24c.175-.046-.013-.01-.013-.01l-.1-.081-.086.035S870.64,180.861,870.588,180.952Z" transform="translate(-869.035 -178.282)" fill="#3f3d56"/>
              <path id="Path_186" data-name="Path 186" d="M858.16,163.79s-.026.019-.032.149a2.6,2.6,0,0,1-.1.422s.338-.234.507-.208Z" transform="translate(-856.72 -161.461)" opacity="0.1"/>
              <path id="Path_187" data-name="Path 187" d="M858.16,161.48s-.026.019-.032.149a2.6,2.6,0,0,1-.1.422s.338-.234.507-.208Z" transform="translate(-856.72 -159.19)" fill="#e7effd"/>
              <path id="Path_188" data-name="Path 188" d="M889.323,157.63l-.533.468a5.4,5.4,0,0,1,.507.331c.058.065.117-.637.117-.637Z" transform="translate(-886.961 -155.405)" opacity="0.1"/>
              <path id="Path_189" data-name="Path 189" d="M890.532,155.33,890,155.8a5.408,5.408,0,0,1,.507.331c.059.065.117-.637.117-.637Z" transform="translate(-888.15 -153.144)" fill="#e7effd"/>
              <path id="Path_190" data-name="Path 190" d="M797.919,163.506s-.058-.029-.114.055a.366.366,0,0,1-.159.123s-.591.094-.614.172l-.276.017s0-.007-.021.01a1.811,1.811,0,0,0,.983.906l.006-.03.114-.779S797.965,163.561,797.919,163.506Z" transform="translate(-796.46 -161.177)" opacity="0.1"/>
              <path id="Path_191" data-name="Path 191" d="M796.337,161.2s-.058-.029-.114.055a.367.367,0,0,1-.159.123s-.591.094-.614.172l-.276.017s-.068.018-.08.024a1.685,1.685,0,0,0,.429.565,1.9,1.9,0,0,0,.608.356l.012-.059.114-.779S796.382,161.251,796.337,161.2Z" transform="translate(-794.897 -158.906)" fill="#65617d"/>
              <path id="Path_192" data-name="Path 192" d="M913.971,155.759l.094-.429a.5.5,0,0,0,.084.172l.14.107a.811.811,0,0,0,.188.065,1.1,1.1,0,0,1,.344.1c.032.036.162.01.162.01s.093.028.187.051a2.858,2.858,0,0,1-1.233.973Z" transform="translate(-911.684 -153.144)" opacity="0.1"/>
              <path id="Path_193" data-name="Path 193" d="M916.149,156.734l.034-1.045.055-.429a.937.937,0,0,0,.124.172l.14.107a.811.811,0,0,0,.188.065,1.1,1.1,0,0,1,.344.1c.032.036.162.01.162.01s.09.035.167.056a2.543,2.543,0,0,1-.22.334,1.958,1.958,0,0,1-.3.291,2.306,2.306,0,0,1-.355.216A1.947,1.947,0,0,1,916.149,156.734Z" transform="translate(-913.857 -153.075)" fill="#65617d"/>
              <path id="Path_194" data-name="Path 194" d="M842.276,73.438a.77.77,0,0,1-.091.365h-.006c-.049-.01-.074-.068-.112-.1a.152.152,0,0,0-.175-.025.178.178,0,0,0-.086.167c-.025-.1-.017-.215-.041-.319s-.1-.21-.2-.211c-.043,0-.093.016-.124-.017s-.023-.051-.037-.073c-.071-.115-.287-.057-.376,0a2.347,2.347,0,0,1-.3.2.773.773,0,0,1,1.546.011Z" transform="translate(-839.713 -71.869)" opacity="0.1"/>
              <path id="Path_196" data-name="Path 196" d="M829.983,48.985c.014.023.018.054.037.073s.081.016.124.017c.1,0,.172.107.2.211s.017.215.041.319a.178.178,0,0,1,.086-.167.152.152,0,0,1,.175.024c.038.036.063.093.112.1s.1-.037.114-.088a1.344,1.344,0,0,0,.028-.162,2.052,2.052,0,0,1,.125-.281.508.508,0,0,0,0-.363c-.024-.061-.061-.116-.084-.177-.037-.093-.047-.2-.093-.285a.337.337,0,0,0-.4-.166c-.071.027-.132.078-.2.1a.674.674,0,0,1-.3-.006.365.365,0,0,0-.289.051c-.092.075-.117.217-.2.3-.036.035-.081.057-.12.089a.166.166,0,0,0-.068.132c.006.068.072.128.047.191a.153.153,0,0,1-.036.047.676.676,0,0,0-.157.268c.174.054.362-.137.5-.228C829.7,48.928,829.912,48.87,829.983,48.985Z" transform="translate(-828.289 -47.653)" fill="#7c5c5c"/>
              <g id="Group_3" data-name="Group 3" transform="translate(0.821 0.998)" opacity="0.1">
                <path id="Path_160" data-name="Path 160" d="M837.75,85.186c.024-.061-.039-.121-.047-.186a.122.122,0,0,0-.01.059,1.093,1.093,0,0,0,.051.141A.091.091,0,0,0,837.75,85.186Z" transform="translate(-837.547 -85)"/>
                <path id="Path_161" data-name="Path 161" d="M830.351,97.759c-.023-.1-.017-.211-.04-.313s-.1-.21-.2-.211c-.043,0-.093.016-.124-.017s-.022-.051-.037-.073c-.071-.115-.287-.057-.376,0-.133.088-.315.273-.486.231a.612.612,0,0,0-.022.06c.174.054.362-.137.5-.228.089-.059.3-.118.376,0,.014.023.018.054.037.073s.081.016.124.017c.1,0,.172.107.2.211s.017.215.041.319A.174.174,0,0,1,830.351,97.759Z" transform="translate(-829.07 -96.874)"/>
                <path id="Path_162" data-name="Path 162" d="M905.453,126.9c-.017.052-.064.1-.114.088s-.075-.068-.112-.1a.152.152,0,0,0-.175-.024.177.177,0,0,0-.086.157.168.168,0,0,1,.076-.094.152.152,0,0,1,.175.024c.038.036.063.093.112.1s.1-.037.114-.088a.445.445,0,0,0,.018-.093A.254.254,0,0,1,905.453,126.9Z" transform="translate(-903.684 -126.135)"/>
                <path id="Path_163" data-name="Path 163" d="M935.054,99.822a2.053,2.053,0,0,0-.125.281c0,.02-.007.041-.01.062a2.06,2.06,0,0,1,.125-.28.5.5,0,0,0,.03-.135A.5.5,0,0,1,935.054,99.822Z" transform="translate(-933.132 -99.501)"/>
              </g>
            </g>
          </g>
          <text id="Projects_On_Device" data-name="Projects On Device" transform="translate(5.719 10.291)" fill="#616161" font-size="1" font-family="ArialMT, Arial"><tspan x="0" y="0">Projects On Device</tspan></text>
          <text id="Recent_Projects" data-name="Recent Projects" transform="translate(5.719 40.257)" fill="#616161" font-size="1" font-family="ArialMT, Arial"><tspan x="0" y="0">Recent Projects</tspan></text>
          <rect id="Rectangle_269" data-name="Rectangle 269" width="41.735" height="0.155" transform="translate(19.631 40.979)" fill="#cdd0d5"/>
          <rect id="Rectangle_271" data-name="Rectangle 271" width="2.319" height="0.155" transform="translate(2.628 40.979)" fill="#cdd0d5"/>
          <rect id="Rectangle_272" data-name="Rectangle 272" width="38.953" height="0.155" transform="translate(22.413 10.373)" fill="#cdd0d5"/>
          <rect id="Rectangle_273" data-name="Rectangle 273" width="2.319" height="0.155" transform="translate(2.628 10.373)" fill="#cdd0d5"/>
          <g id="Group_162" data-name="Group 162" transform="translate(57.656 1.253)">
            <g id="outline-search-24px" transform="translate(0 0)">
              <path id="Path_12" data-name="Path 12" d="M0,0H3.71V3.71H0Z" fill="none"/>
              <path id="Path_13" data-name="Path 13" d="M4.932,4.7H4.81l-.043-.042a1.006,1.006,0,1,0-.108.108L4.7,4.81v.122l.773.771.23-.23ZM4,4.7A.7.7,0,1,1,4.7,4,.695.695,0,0,1,4,4.7Z" transform="translate(-2.536 -2.536)" fill="#177abb"/>
            </g>
          </g>
          <g transform="matrix(1, 0, 0, 1, -115.99, -75.2)" filter="url(#Path_807)">
            <path id="Path_807-15" data-name="Path 807" d="M.751,0H57.987a.688.688,0,0,1,.751.6V9.449a.688.688,0,0,1-.751.6H.751A.688.688,0,0,1,0,9.449V.6A.688.688,0,0,1,.751,0Z" transform="translate(118.62 88.82)" fill="#ecf4ff"/>
          </g>
          <text id="KA-6497-01" transform="translate(4.637 16.525)" fill="#222a35" font-size="2" font-family="SegoeUI-Semibold, Segoe UI" font-weight="600"><tspan x="0" y="0">KA-6497-01</tspan></text>
          <text id="Bridge_001_Route_004" data-name="Bridge 001 Route 004" transform="translate(4.63 20.515)" fill="#656565" font-size="1" font-family="SegoeUI, Segoe UI"><tspan x="0" y="0">Bridge 001 Route 004</tspan></text>
          <g id="baseline-more_vert-24px_2_" data-name="baseline-more_vert-24px (2)" transform="translate(54.41 16.402)">
            <path id="Path_805" data-name="Path 805" d="M0,0H4.637V4.637H0Z" fill="none"/>
            <path id="Path_806" data-name="Path 806" d="M10.386,4.773A.386.386,0,1,0,10,4.386.388.388,0,0,0,10.386,4.773Zm0,.386a.386.386,0,1,0,.386.386A.388.388,0,0,0,10.386,5.159Zm0,1.159a.386.386,0,1,0,.386.386A.388.388,0,0,0,10.386,6.319Z" transform="translate(-8.068 -3.227)" fill="#003d7d"/>
          </g>
          <g id="Group_167" data-name="Group 167" transform="translate(2.628 26.758)">
            <g transform="matrix(1, 0, 0, 1, -118.62, -101.96)" filter="url(#Path_807-2)">
              <path id="Path_807-16" data-name="Path 807" d="M.751,0H57.987a.688.688,0,0,1,.751.6V9.449a.688.688,0,0,1-.751.6H.751A.688.688,0,0,1,0,9.449V.6A.688.688,0,0,1,.751,0Z" transform="translate(118.62 101.96)" fill="#ecf4ff"/>
            </g>
            <text id="KA-6497-01-2" data-name="KA-6497-01" transform="translate(2.009 2.906)" fill="#222a35" font-size="2" font-family="SegoeUI-Semibold, Segoe UI" font-weight="600"><tspan x="0" y="0">KA-6497-01</tspan></text>
            <text id="Bridge_001_Route_004-2" data-name="Bridge 001 Route 004" transform="translate(2.002 6.256)" fill="#656565" font-size="1" font-family="SegoeUI, Segoe UI"><tspan x="0" y="0">Bridge 001 Route 004</tspan></text>
            <g id="baseline-more_vert-24px_2_2" data-name="baseline-more_vert-24px (2)" transform="translate(51.783 2.782)">
              <path id="Path_805-2" data-name="Path 805" d="M0,0H4.637V4.637H0Z" fill="none"/>
              <path id="Path_806-2" data-name="Path 806" d="M10.386,4.773A.386.386,0,1,0,10,4.386.388.388,0,0,0,10.386,4.773Zm0,.386a.386.386,0,1,0,.386.386A.388.388,0,0,0,10.386,5.159Zm0,1.159a.386.386,0,1,0,.386.386A.388.388,0,0,0,10.386,6.319Z" transform="translate(-8.068 -3.227)" fill="#003d7d"/>
            </g>
          </g>
          <g id="Group_168" data-name="Group 168" transform="translate(2.628 45.153)">
            <g transform="matrix(1, 0, 0, 1, -118.62, -120.35)" filter="url(#Path_807-3)">
              <path id="Path_807-17" data-name="Path 807" d="M.751,0H57.987a.688.688,0,0,1,.751.6V9.449a.688.688,0,0,1-.751.6H.751A.688.688,0,0,1,0,9.449V.6A.688.688,0,0,1,.751,0Z" transform="translate(118.62 120.35)" fill="#fff"/>
            </g>
            <text id="KA-6497-01-3" data-name="KA-6497-01" transform="translate(2.009 2.906)" fill="#222a35" font-size="2" font-family="SegoeUI-Semibold, Segoe UI" font-weight="600"><tspan x="0" y="0">KA-6497-01</tspan></text>
            <text id="Bridge_001_Route_004-3" data-name="Bridge 001 Route 004" transform="translate(2.002 6.256)" fill="#656565" font-size="1" font-family="SegoeUI, Segoe UI"><tspan x="0" y="0">Bridge 001 Route 004</tspan></text>
            <g id="baseline-more_vert-24px_2_3" data-name="baseline-more_vert-24px (2)" transform="translate(51.783 2.782)">
              <path id="Path_805-3" data-name="Path 805" d="M0,0H4.637V4.637H0Z" fill="none"/>
              <path id="Path_806-3" data-name="Path 806" d="M10.386,4.773A.386.386,0,1,0,10,4.386.388.388,0,0,0,10.386,4.773Zm0,.386a.386.386,0,1,0,.386.386A.388.388,0,0,0,10.386,5.159Zm0,1.159a.386.386,0,1,0,.386.386A.388.388,0,0,0,10.386,6.319Z" transform="translate(-8.068 -3.227)" fill="#003d7d"/>
            </g>
          </g>
          <g id="Group_170" data-name="Group 170" transform="translate(2.628 71.43)">
            <g transform="matrix(1, 0, 0, 1, -118.62, -146.63)" filter="url(#Path_807-4)">
              <path id="Path_807-18" data-name="Path 807" d="M.751,0H57.987a.688.688,0,0,1,.751.6V9.449a.688.688,0,0,1-.751.6H.751A.688.688,0,0,1,0,9.449V.6A.688.688,0,0,1,.751,0Z" transform="translate(118.62 146.63)" fill="#fff"/>
            </g>
            <text id="KA-6497-01-4" data-name="KA-6497-01" transform="translate(2.009 2.546)" fill="#222a35" font-size="1" font-family="SegoeUI-Semibold, Segoe UI" font-weight="600"><tspan x="0" y="0">KA-6497-01</tspan></text>
            <text id="Bridge_001_Route_004-4" data-name="Bridge 001 Route 004" transform="translate(2.002 6.256)" fill="#656565" font-size="1" font-family="SegoeUI, Segoe UI"><tspan x="0" y="0">Bridge 001 Route 004</tspan></text>
            <g id="baseline-more_vert-24px_2_4" data-name="baseline-more_vert-24px (2)" transform="translate(51.783 2.782)">
              <path id="Path_805-4" data-name="Path 805" d="M0,0H4.637V4.637H0Z" fill="none"/>
              <path id="Path_806-4" data-name="Path 806" d="M10.386,4.773A.386.386,0,1,0,10,4.386.388.388,0,0,0,10.386,4.773Zm0,.386a.386.386,0,1,0,.386.386A.388.388,0,0,0,10.386,5.159Zm0,1.159a.386.386,0,1,0,.386.386A.388.388,0,0,0,10.386,6.319Z" transform="translate(-8.068 -3.227)" fill="#003d7d"/>
            </g>
          </g>
          <g id="Group_171" data-name="Group 171" transform="translate(2.628 84.569)">
            <g transform="matrix(1, 0, 0, 1, -118.62, -159.77)" filter="url(#Path_807-5)">
              <path id="Path_807-19" data-name="Path 807" d="M.751,0H57.987a.688.688,0,0,1,.751.6V9.449a.688.688,0,0,1-.751.6H.751A.688.688,0,0,1,0,9.449V.6A.688.688,0,0,1,.751,0Z" transform="translate(118.62 159.77)" fill="#fff"/>
            </g>
            <text id="KA-6497-01-5" data-name="KA-6497-01" transform="translate(2.009 2.546)" fill="#222a35" font-size="1" font-family="SegoeUI-Semibold, Segoe UI" font-weight="600"><tspan x="0" y="0">KA-6497-01</tspan></text>
            <text id="Bridge_001_Route_004-5" data-name="Bridge 001 Route 004" transform="translate(2.002 6.256)" fill="#656565" font-size="1" font-family="SegoeUI, Segoe UI"><tspan x="0" y="0">Bridge 001 Route 004</tspan></text>
            <g id="baseline-more_vert-24px_2_5" data-name="baseline-more_vert-24px (2)" transform="translate(51.783 2.782)">
              <path id="Path_805-5" data-name="Path 805" d="M0,0H4.637V4.637H0Z" fill="none"/>
              <path id="Path_806-5" data-name="Path 806" d="M10.386,4.773A.386.386,0,1,0,10,4.386.388.388,0,0,0,10.386,4.773Zm0,.386a.386.386,0,1,0,.386.386A.388.388,0,0,0,10.386,5.159Zm0,1.159a.386.386,0,1,0,.386.386A.388.388,0,0,0,10.386,6.319Z" transform="translate(-8.068 -3.227)" fill="#003d7d"/>
            </g>
          </g>
          <g id="Group_172" data-name="Group 172" transform="translate(2.628 97.708)">
            <g transform="matrix(1, 0, 0, 1, -118.62, -172.91)" filter="url(#Path_807-6)">
              <path id="Path_807-20" data-name="Path 807" d="M.751,0H57.987a.688.688,0,0,1,.751.6V9.449a.688.688,0,0,1-.751.6H.751A.688.688,0,0,1,0,9.449V.6A.688.688,0,0,1,.751,0Z" transform="translate(118.62 172.91)" fill="#fff"/>
            </g>
            <text id="KA-6497-01-6" data-name="KA-6497-01" transform="translate(2.009 2.546)" fill="#222a35" font-size="1" font-family="SegoeUI-Semibold, Segoe UI" font-weight="600"><tspan x="0" y="0">KA-6497-01</tspan></text>
            <text id="Bridge_001_Route_004-6" data-name="Bridge 001 Route 004" transform="translate(2.002 6.256)" fill="#656565" font-size="1" font-family="SegoeUI, Segoe UI"><tspan x="0" y="0">Bridge 001 Route 004</tspan></text>
            <g id="baseline-more_vert-24px_2_6" data-name="baseline-more_vert-24px (2)" transform="translate(51.783 2.782)">
              <path id="Path_805-6" data-name="Path 805" d="M0,0H4.637V4.637H0Z" fill="none"/>
              <path id="Path_806-6" data-name="Path 806" d="M10.386,4.773A.386.386,0,1,0,10,4.386.388.388,0,0,0,10.386,4.773Zm0,.386a.386.386,0,1,0,.386.386A.388.388,0,0,0,10.386,5.159Zm0,1.159a.386.386,0,1,0,.386.386A.388.388,0,0,0,10.386,6.319Z" transform="translate(-8.068 -3.227)" fill="#003d7d"/>
            </g>
          </g>
          <g id="Group_173" data-name="Group 173" transform="translate(2.628 110.847)">
            <g transform="matrix(1, 0, 0, 1, -118.62, -186.05)" filter="url(#Path_807-7)">
              <path id="Path_807-21" data-name="Path 807" d="M.751,0H57.987a.688.688,0,0,1,.751.6V9.449a.688.688,0,0,1-.751.6H.751A.688.688,0,0,1,0,9.449V.6A.688.688,0,0,1,.751,0Z" transform="translate(118.62 186.05)" fill="#fff"/>
            </g>
            <text id="KA-6497-01-7" data-name="KA-6497-01" transform="translate(2.009 2.546)" fill="#222a35" font-size="1" font-family="SegoeUI-Semibold, Segoe UI" font-weight="600"><tspan x="0" y="0">KA-6497-01</tspan></text>
            <text id="Bridge_001_Route_004-7" data-name="Bridge 001 Route 004" transform="translate(2.002 6.256)" fill="#656565" font-size="1" font-family="SegoeUI, Segoe UI"><tspan x="0" y="0">Bridge 001 Route 004</tspan></text>
            <g id="baseline-more_vert-24px_2_7" data-name="baseline-more_vert-24px (2)" transform="translate(51.783 2.782)">
              <path id="Path_805-7" data-name="Path 805" d="M0,0H4.637V4.637H0Z" fill="none"/>
              <path id="Path_806-7" data-name="Path 806" d="M10.386,4.773A.386.386,0,1,0,10,4.386.388.388,0,0,0,10.386,4.773Zm0,.386a.386.386,0,1,0,.386.386A.388.388,0,0,0,10.386,5.159Zm0,1.159a.386.386,0,1,0,.386.386A.388.388,0,0,0,10.386,6.319Z" transform="translate(-8.068 -3.227)" fill="#003d7d"/>
            </g>
          </g>
          <g id="Group_169" data-name="Group 169" transform="translate(2.628 58.292)">
            <g transform="matrix(1, 0, 0, 1, -118.62, -133.49)" filter="url(#Path_807-8)">
              <path id="Path_807-22" data-name="Path 807" d="M.751,0H57.987a.688.688,0,0,1,.751.6V9.449a.688.688,0,0,1-.751.6H.751A.688.688,0,0,1,0,9.449V.6A.688.688,0,0,1,.751,0Z" transform="translate(118.62 133.49)" fill="#fff"/>
            </g>
            <text id="KA-6497-01-8" data-name="KA-6497-01" transform="translate(2.009 2.546)" fill="#d2d2d2" font-size="1" font-family="SegoeUI-Semibold, Segoe UI" font-weight="600"><tspan x="0" y="0">KA-6497-01</tspan></text>
            <text id="Bridge_001_Route_004-8" data-name="Bridge 001 Route 004" transform="translate(2.002 6.256)" fill="#d2d2d2" font-size="1" font-family="SegoeUI, Segoe UI"><tspan x="0" y="0">Bridge 001 Route 004</tspan></text>
            <g id="baseline-more_vert-24px_2_8" data-name="baseline-more_vert-24px (2)" transform="translate(51.783 2.782)">
              <path id="Path_805-8" data-name="Path 805" d="M0,0H4.637V4.637H0Z" fill="none"/>
            </g>
          </g>
          <g id="Group_770" data-name="Group 770" transform="translate(52.865 120.276)">
            <g id="Button" transform="translate(0 0)">
              <g id="Button_bg-7" data-name="Button bg">
                <g transform="matrix(1, 0, 0, 1, -168.86, -195.48)" filter="url(#Button_bg)">
                  <circle id="Button_bg-8" data-name="Button bg" cx="4.328" cy="4.328" r="4.328" transform="translate(168.86 195.48)" fill="#003d7d" stroke="rgba(255,255,255,0.12)" stroke-width="0.5"/>
                </g>
                <g transform="matrix(1, 0, 0, 1, -168.86, -195.48)" filter="url(#Button_bg-2)">
                  <circle id="Button_bg-9" data-name="Button bg" cx="4.328" cy="4.328" r="4.328" transform="translate(168.86 195.48)" fill="#003d7d" stroke="rgba(255,255,255,0.12)" stroke-width="0.5"/>
                </g>
              </g>
              <g id="Add_Icon" data-name="Add Icon" transform="translate(2.473 2.473)">
                <rect id="Bounds" width="3.71" height="3.71" fill="none"/>
                <path id="Icon" d="M5.927,5v.927H5v.309h.927v.927h.309V6.237h.927V5.927H6.237V5Z" transform="translate(-4.227 -4.227)" fill="#fff"/>
              </g>
            </g>
          </g>
        </g>
      </g>
      <g transform="matrix(1, 0, 0, 1, -20, -19.96)" filter="url(#body-3)">
        <path id="body-8" data-name="body" d="M13.976,0H62.557c8,0,14.225,3.194,14.225,13.984,0,10.542,0,53.368,0,86.095-45.336,0-34.565-.04-76.8.008,0-34.953,0-79.749,0-86.1C-.012,2.468,7.184,0,13.976,0Z" transform="translate(20.02 175.87)" fill="#edf3f6"/>
      </g>
      <g transform="matrix(1, 0, 0, 1, -20, -19.96)" filter="url(#screen-4)">
        <path id="screen-10" data-name="screen" d="M48.436,5.467a4.122,4.122,0,0,0,4.083-4.2c0-.924.266-1.228,1.308-1.228h6.025c3.448,0,7.412,1.585,7.412,7.685V94.247c-38.475-.024-67.264,0-67.264,0C0,57.57,0,10.359,0,7.289,0,2.3,3.567,0,6.9,0h6.7c.951,0,1.149.555,1.149,1.188a4.145,4.145,0,0,0,4.281,4.239C22.355,5.427,44.671,5.467,48.436,5.467Z" transform="translate(24.52 181.69)" fill="#fff"/>
      </g>
      <path id="Rectangle_3-5" data-name="Rectangle 3" d="M3.408,2.06H.555A.555.555,0,0,1,0,1.505V.555A.555.555,0,0,1,.555,0H3.408a.555.555,0,0,1,.555.555v.951A.555.555,0,0,1,3.408,2.06ZM.555.158a.4.4,0,0,0-.4.4v.951a.4.4,0,0,0,.4.4H3.408a.4.4,0,0,0,.4-.4V.555a.4.4,0,0,0-.4-.4Z" transform="translate(64.909 164.86)" fill="#f7f8fa"/>
      <rect id="Rectangle_3-6" data-name="Rectangle 3" width="1.793" height="1.426" rx="0.713" transform="translate(65.227 165.177)" fill="#f7f8fa"/>
      <rect id="Mask-6" data-name="Mask" width="3.725" height="3.724" transform="translate(60.076 164.325) rotate(-45)" fill="none"/>
      <g id="wifi_black-3" data-name="wifi_black" transform="translate(60.076 164.325) rotate(-45)" clip-path="url(#clip-path)">
        <g id="Group-3" data-name="Group" transform="translate(-2.06 1.664)">
          <ellipse id="Oval_3-7" data-name="Oval 3" cx="0.713" cy="0.713" rx="0.713" ry="0.713" transform="translate(1.347 1.347)" fill="#f7f8fa"/>
          <path id="Oval_3-8" data-name="Oval 3" d="M2.061,4.12a2.06,2.06,0,0,1-.8-3.958,2.061,2.061,0,0,1,1.6,3.8A2.048,2.048,0,0,1,2.061,4.12Zm0-3.645A1.585,1.585,0,1,0,3.645,2.06,1.587,1.587,0,0,0,2.061.475Z" transform="translate(0 0)" fill="#f7f8fa"/>
          <path id="Oval_3-9" data-name="Oval 3" d="M1.347,2.694A1.347,1.347,0,0,1,.395.394,1.347,1.347,0,1,1,2.3,2.3,1.339,1.339,0,0,1,1.347,2.694Zm0-2.3a.951.951,0,1,0,.951.951A.952.952,0,0,0,1.347.4Z" transform="translate(0.713 0.713)" fill="#f7f8fa"/>
        </g>
      </g>
      <path id="Combined_Shape-5" data-name="Combined Shape" d="M2.774,1.981a.158.158,0,0,1-.159-.158V.158A.158.158,0,0,1,2.774,0h.317a.158.158,0,0,1,.159.158V1.822a.158.158,0,0,1-.159.158Zm-.872,0a.158.158,0,0,1-.159-.158V.555A.158.158,0,0,1,1.9.4h.317a.158.158,0,0,1,.159.158V1.822a.158.158,0,0,1-.159.158Zm-.872,0a.158.158,0,0,1-.159-.158V.951A.158.158,0,0,1,1.03.792h.317a.158.158,0,0,1,.159.158v.872a.158.158,0,0,1-.159.158Zm-.872,0A.158.158,0,0,1,0,1.822V1.347a.158.158,0,0,1,.159-.158H.475a.158.158,0,0,1,.159.158v.475a.158.158,0,0,1-.159.158Z" transform="translate(57.143 164.94)" fill="#f7f8fa"/>
      <path id="receiver-3" data-name="receiver" d="M.674,0H8.757a.673.673,0,1,1,0,1.347H.674A.673.673,0,1,1,.674,0Z" transform="translate(33.447 162.642)" fill="#fff"/>
      <ellipse id="camera-3" data-name="camera" cx="1.109" cy="1.109" rx="1.109" ry="1.109" transform="translate(45.335 162.166)" fill="#fff"/>
      <g id="Group_792-3" data-name="Group 792" transform="translate(10.05 163.792)">
        <g id="Group_123-3" data-name="Group 123" transform="translate(0 0)">
          <g id="Group_122-3" data-name="Group 122">
            <text id="_2:00-3" data-name="2:00" transform="translate(0 1)" fill="#f7f8fa" font-size="1" font-family="SegoeUI-Semibold, Segoe UI" font-weight="600"><tspan x="0" y="0">2:00</tspan></text>
          </g>
          <g id="Path_771-3" data-name="Path 771" transform="translate(5.287 0.646)" fill="none">
            <path d="M.028.722A9.7,9.7,0,0,1,1.545,0s.177-.006.129.158A6.125,6.125,0,0,1,1,1.7C.774,1.865.83.861.83.861S-.18.928.028.722Z" stroke="none"/>
            <path d="M 1.547424674034119 -1.311302185058594e-06 C 1.56718111038208 -1.9073486328125e-06 1.719271779060364 0.004927754402160645 1.67391049861908 0.1583119630813599 C 1.568700551986694 0.5148019790649414 1.171700477600098 1.562942028045654 0.9978805184364319 1.695072054862976 C 0.9804659485816956 1.708308935165405 0.9647296667098999 1.714417815208435 0.9505424499511719 1.714417815208435 C 0.7827069759368896 1.714417815208435 0.8296605348587036 0.8607220053672791 0.8296605348587036 0.8607220053672791 C 0.8296605348587036 0.8607220053672791 0.67270827293396 0.8711009621620178 0.4953712224960327 0.8711009621620178 C 0.2228026390075684 0.8711009621620178 -0.09799456596374512 0.8465977907180786 0.02837049961090088 0.7222319841384888 C 0.2369605302810669 0.5169520378112793 1.54533052444458 2.205371856689453e-05 1.54533052444458 2.205371856689453e-05 C 1.54533052444458 2.205371856689453e-05 1.546066403388977 -1.311302185058594e-06 1.547424674034119 -1.311302185058594e-06 Z" stroke="none" fill="#f7f8fa"/>
          </g>
        </g>
      </g>
      <g id="Group_820" data-name="Group 820" transform="translate(5.124 171.01)">
        <text id="Add_Project" data-name="Add Project" transform="translate(0.317 7.712)" fill="#222a35" font-size="2" font-family="SegoeUI-Bold, Segoe UI" font-weight="700"><tspan x="0" y="0">Add Project</tspan></text>
        <g id="baseline-close-24px" transform="translate(0 0)">
          <path id="Path_808" data-name="Path 808" d="M7.539,5.256,7.283,5,6.269,6.014,5.256,5,5,5.256,6.014,6.269,5,7.283l.256.256L6.269,6.525,7.283,7.539l.256-.256L6.525,6.269Z" transform="translate(-4.207 -4.207)" fill="#003d7d"/>
          <path id="Path_809" data-name="Path 809" d="M0,0H4.125V4.125H0Z" fill="none"/>
        </g>
        <g id="Group_176" data-name="Group 176" transform="translate(0.793 13.634)">
          <text id="Project_Number" data-name="Project Number" transform="translate(0 1)" fill="#637280" font-size="1" font-family="SegoeUI, Segoe UI"><tspan x="0" y="0">Project Number</tspan></text>
          <rect id="Rectangle_274" data-name="Rectangle 274" width="56.801" height="0.159" transform="translate(0 8.737)" fill="#e0e4e8"/>
        </g>
        <text id="Bridge_Number" data-name="Bridge Number" transform="translate(0.952 26.058)" fill="#637280" font-size="1" font-family="SegoeUI, Segoe UI"><tspan x="0" y="0">Bridge Number</tspan></text>
        <rect id="Rectangle_274-2" data-name="Rectangle 274" width="56.643" height="0.159" transform="translate(0.952 33.795)" fill="#e0e4e8"/>
        <text id="Coordinate_System" data-name="Coordinate System" transform="translate(0.952 37.482)" fill="#637280" font-size="1" font-family="SegoeUI, Segoe UI"><tspan x="0" y="0">Coordinate System</tspan></text>
        <rect id="Rectangle_274-3" data-name="Rectangle 274" width="56.643" height="0.159" transform="translate(0.952 45.219)" fill="#e0e4e8"/>
        <path id="Path_810" data-name="Path 810" d="M0,0H1.587L.793.793Z" transform="translate(53.628 17.77)" fill="#637280"/>
        <rect id="Rectangle_275" data-name="Rectangle 275" width="56.484" height="6.981" rx="1" transform="translate(0.647 53.675)" fill="#003d7d"/>
        <text id="Add_a_project" data-name="Add a project" transform="translate(21.767 56.595)" fill="#fff" font-size="1" font-family="SegoeUI, Segoe UI" letter-spacing="-0.01em"><tspan x="0" y="0">Add a project</tspan></text>
      </g>
      <path id="bottom-3" data-name="bottom" d="M.634,0h23.3a.634.634,0,1,1,0,1.268H.634A.634.634,0,1,1,.634,0Z" transform="translate(26.077 130.045)" fill="#f0f3f5"/>
      <g transform="matrix(1, 0, 0, 1, -20, -19.96)" filter="url(#body-4)">
        <path id="body-9" data-name="body" d="M76.793,73.238c0,26.095,0,114.887,0,120.245,0,5.761-.277,15.767-13.512,15.767H12.046C6.274,209.25,0,205.77,0,195.9c0-8.822,0-95.352,0-121.089A3.51,3.51,0,0,1,.62,73.629a2.415,2.415,0,0,1,1.306-.461C37.941,73.06,26.992,73.116,76.793,73.238Z" transform="translate(20.01 -53.1)" fill="#edf3f6"/>
      </g>
      <text id="_5-15_ft" data-name="5-15 ft" transform="translate(51.953 52.429)" fill="#656565" font-size="1" font-family="SegoeUI, Segoe UI"><tspan x="0" y="0">5-15 ft</tspan></text>
      <g transform="matrix(1, 0, 0, 1, -20, -19.96)" filter="url(#screen-5)">
        <path id="screen-11" data-name="screen" d="M67.264,22.177c0,25.723,0,119.284,0,123.626,0,4.912-2.616,7.685-8.443,7.685H7.808c-5.945,0-7.808-3.6-7.808-7.566V22.507C67.214,22.2.136,22.447,67.264,22.177Z" transform="translate(24.53 -2.02)" fill="#fff"/>
      </g>
      <path id="bottom-4" data-name="bottom" d="M.634,0h23.3a.634.634,0,1,1,0,1.268H.634A.634.634,0,1,1,.634,0Z" transform="translate(205.26 87.041)" fill="#f0f3f5"/>
      <g transform="matrix(1, 0, 0, 1, -20, -19.96)" filter="url(#body-5)">
        <path id="body-10" data-name="body" d="M76.793,242.659c0,33.71,0,72.313,0,75.79,0,5.761-.277,15.767-13.512,15.767H12.046C6.274,334.216,0,330.737,0,320.866V241.13c42.543-.1,31.439-.019,74.923-.059C75.6,241.07,76.793,242.029,76.793,242.659Z" transform="translate(199.19 -221.07)" fill="#edf3f6" opacity="0.37"/>
      </g>
      <g transform="matrix(1, 0, 0, 1, -20, -19.96)" filter="url(#screen-6)">
        <path id="screen-12" data-name="screen" d="M67.264,218.283c0,35.9,0,78.959,0,81.872,0,4.912-2.616,7.685-8.443,7.685H7.808c-5.945,0-7.808-3.6-7.808-7.566V218.2C46.215,218.174,22.08,218.174,67.264,218.283Z" transform="translate(203.8 -198.22)" fill="#fff"/>
      </g>
      <g transform="matrix(1, 0, 0, 1, -20, -19.96)" filter="url(#Path_807-9)">
        <path id="Path_807-23" data-name="Path 807" d="M61.273,27.73v2.757a.718.718,0,0,1-.784.624H.784A.718.718,0,0,1,0,30.487V27.727Z" transform="translate(206.61 -7.69)" fill="#fff"/>
      </g>
      <g transform="matrix(1, 0, 0, 1, -20, -19.96)" filter="url(#Path_807-10)">
        <path id="Path_807-24" data-name="Path 807" d="M.784,0H60.489a.718.718,0,0,1,.784.624V9.857a.718.718,0,0,1-.784.624H.784A.718.718,0,0,1,0,9.857V.624A.718.718,0,0,1,.784,0Z" transform="translate(206.61 26.64)" fill="#fff"/>
      </g>
      <text id="Note" transform="translate(189.029 10.775)" fill="#222a35" font-size="2" font-family="SegoeUI-Semibold, Segoe UI" font-weight="600"><tspan x="0" y="0">Note</tspan></text>
      <g id="Button_bg-10" data-name="Button bg" transform="translate(239.015 76.982)">
        <g transform="matrix(1, 0, 0, 1, -259.02, -96.95)" filter="url(#Button_bg-3)">
          <circle id="Button_bg-11" data-name="Button bg" cx="4.515" cy="4.515" r="4.515" transform="translate(259.02 96.95)" fill="#003d7d" stroke="rgba(255,255,255,0.12)" stroke-width="0.5"/>
        </g>
        <g transform="matrix(1, 0, 0, 1, -259.02, -96.95)" filter="url(#Button_bg-4)">
          <circle id="Button_bg-12" data-name="Button bg" cx="4.515" cy="4.515" r="4.515" transform="translate(259.02 96.95)" fill="#003d7d" stroke="rgba(255,255,255,0.12)" stroke-width="0.5"/>
        </g>
      </g>
      <g id="Add_Icon-2" data-name="Add Icon" transform="translate(241.595 79.562)">
        <rect id="Bounds-2" data-name="Bounds" width="3.87" height="3.87" fill="none"/>
        <path id="Icon-2" data-name="Icon" d="M5.967,5v.967H5V6.29h.967v.967H6.29V6.29h.967V5.967H6.29V5Z" transform="translate(-4.194 -4.194)" fill="#fff"/>
      </g>
      <g id="Group_821" data-name="Group 821" transform="translate(7.69 3.539)">
        <text id="KA-1234-01_Soundings" data-name="KA-1234-01 Soundings" transform="translate(3.225 1)" fill="#616161" font-size="1" font-family="ArialMT, Arial"><tspan x="0" y="0">KA-1234-01 Soundings</tspan></text>
        <rect id="Rectangle_272-2" data-name="Rectangle 272" width="37.248" height="0.161" transform="translate(24.025 1.129)" fill="#cdd0d5"/>
        <rect id="Rectangle_273-2" data-name="Rectangle 273" width="2.419" height="0.161" transform="translate(0 1.129)" fill="#cdd0d5"/>
        <g transform="matrix(1, 0, 0, 1, -27.69, -23.5)" filter="url(#Path_807-11)">
          <path id="Path_807-25" data-name="Path 807" d="M.784,0H60.489a.718.718,0,0,1,.784.624V9.857a.718.718,0,0,1-.784.624H.784A.718.718,0,0,1,0,9.857V.624A.718.718,0,0,1,.784,0Z" transform="translate(27.69 28.02)" fill="#fff"/>
        </g>
        <text id="CH01-A" transform="translate(2.419 9.251)" fill="#222a35" font-size="2" font-family="SegoeUI-Semibold, Segoe UI" font-weight="600"><tspan x="0" y="0">CH01-A</tspan></text>
        <text id="_0-5_ft" data-name="0-5 ft" transform="translate(50.139 8.578)" fill="#656565" font-size="1" font-family="SegoeUI, Segoe UI"><tspan x="0" y="0">0-5 ft</tspan></text>
        <g transform="matrix(1, 0, 0, 1, -27.69, -23.5)" filter="url(#Path_807-12)">
          <path id="Path_807-26" data-name="Path 807" d="M.784,0H60.489a.718.718,0,0,1,.784.624V9.857a.718.718,0,0,1-.784.624H.784A.718.718,0,0,1,0,9.857V.624A.718.718,0,0,1,.784,0Z" transform="translate(27.69 41.72)" fill="#fff"/>
        </g>
        <text id="B01" transform="translate(2.419 23.957)" fill="#222a35" font-size="3" font-family="SegoeUI-Semibold, Segoe UI" font-weight="600"><tspan x="0" y="0">B01</tspan></text>
        <text id="_5-15_ft-2" data-name="5-15 ft" transform="translate(48.365 22.284)" fill="#656565" font-size="1" font-family="SegoeUI, Segoe UI"><tspan x="0" y="0">5-15 ft</tspan></text>
        <g transform="matrix(1, 0, 0, 1, -27.69, -23.5)" filter="url(#Path_807-13)">
          <path id="Path_807-27" data-name="Path 807" d="M.784,0H60.489a.718.718,0,0,1,.784.624V9.857a.718.718,0,0,1-.784.624H.784A.718.718,0,0,1,0,9.857V.624A.718.718,0,0,1,.784,0Z" transform="translate(27.69 55.43)" fill="#fff"/>
        </g>
        <text id="PA02" transform="translate(2.419 37.303)" fill="#222a35" font-size="2" font-family="SegoeUI-Semibold, Segoe UI" font-weight="600"><tspan x="0" y="0">PA02</tspan></text>
        <text id="_5-15_ft-3" data-name="5-15 ft" transform="translate(48.365 35.99)" fill="#656565" font-size="1" font-family="SegoeUI, Segoe UI"><tspan x="0" y="0">5-15 ft</tspan></text>
        <g transform="matrix(1, 0, 0, 1, -27.69, -23.5)" filter="url(#Path_807-14)">
          <path id="Path_807-28" data-name="Path 807" d="M.784,0H60.489a.718.718,0,0,1,.784.624V9.857a.718.718,0,0,1-.784.624H.784A.718.718,0,0,1,0,9.857V.624A.718.718,0,0,1,.784,0Z" transform="translate(27.69 68.33)" fill="#fff"/>
        </g>
        <text id="S01-A" transform="translate(2.419 50.202)" fill="#222a35" font-size="2" font-family="SegoeUI-Semibold, Segoe UI" font-weight="600"><tspan x="0" y="0">S01-A</tspan></text>
        <text id="_5-15_ft-4" data-name="5-15 ft" transform="translate(48.365 48.89)" fill="#656565" font-size="1" font-family="SegoeUI, Segoe UI"><tspan x="0" y="0">5-15 ft</tspan></text>
        <g id="Button-2" data-name="Button" transform="translate(52.405 115.935)">
          <g id="Button_bg-13" data-name="Button bg">
            <g transform="matrix(1, 0, 0, 1, -80.09, -139.44)" filter="url(#Button_bg-5)">
              <circle id="Button_bg-14" data-name="Button bg" cx="4.515" cy="4.515" r="4.515" transform="translate(80.09 139.44)" fill="#003d7d" stroke="rgba(255,255,255,0.12)" stroke-width="0.5"/>
            </g>
            <g transform="matrix(1, 0, 0, 1, -80.09, -139.44)" filter="url(#Button_bg-6)">
              <circle id="Button_bg-15" data-name="Button bg" cx="4.515" cy="4.515" r="4.515" transform="translate(80.09 139.44)" fill="#003d7d" stroke="rgba(255,255,255,0.12)" stroke-width="0.5"/>
            </g>
          </g>
          <g id="Add_Icon-3" data-name="Add Icon" transform="translate(2.58 2.58)">
            <rect id="Bounds-3" data-name="Bounds" width="3.87" height="3.87" fill="none"/>
            <path id="Icon-3" data-name="Icon" d="M5.967,5v.967H5V6.29h.967v.967H6.29V6.29h.967V5.967H6.29V5Z" transform="translate(-4.194 -4.194)" fill="#fff"/>
          </g>
        </g>
      </g>
      <path id="Combined_Shape-6" data-name="Combined Shape" d="M0,.614H0V0A.317.317,0,0,1,.238.307.317.317,0,0,1,0,.614Z" transform="translate(69.11 165.583)" fill="#f7f8fa"/>
    </g>
  </g>
</svg>
