<svg xmlns="http://www.w3.org/2000/svg" width="100" height="100" viewBox="0 0 100 100">
  <g id="gulp" transform="translate(-1188 -2353)">
    <g id="oracle-6" transform="translate(147)">
      <rect id="Rectangle_1433" data-name="Rectangle 1433" width="100" height="100" transform="translate(1041 2353)" fill="none"/>
    </g>
    <g id="gulp-2" data-name="gulp" transform="translate(1214.231 2352.842)">
      <path id="Path_884" data-name="Path 884" d="M35.51,97.748,36.47,81.76l2.649-4.522S33.089,79.7,22.995,79.7,6.962,77.284,6.962,77.284l2.969,4.933,1.05,15.531c0,1.665,5.491,3.015,12.265,3.015s12.264-1.35,12.264-3.015M32.484,23.09,34.5,15.13,45.65,3.4,42.71.892,30.9,13.392,28.565,22.9q-2.64-.088-5.281-.088C10.849,22.814.769,24.232.769,25.979s10.08,3.165,22.515,3.165S45.8,27.727,45.8,25.979c0-1.287-5.467-2.395-13.315-2.889" transform="translate(0 -0.605)" fill="#d34a47"/>
      <path id="Path_885" data-name="Path 885" d="M152.921,146.6a9.558,9.558,0,0,1-1.719.1c-1.283.005-2.194-.008-2.557-.339a.573.573,0,0,1-.15-.384.493.493,0,0,1,.368-.445l.194.3c-.085.029-.133.064-.133.1a5.456,5.456,0,0,0,2.316.278c1-.012,2.218-.1,2.219-.265,0-.051-.092-.1-.251-.138l.193-.3c.26.081.487.237.487.507,0,.459-.587.529-.966.581" transform="translate(-121.609 -119.661)" fill="#fff"/>
      <path id="Path_886" data-name="Path 886" d="M46.36,2.814c.28-.324-.145-1.152-.95-1.85s-1.686-1-1.967-.677.145,1.152.951,1.85,1.686,1,1.967.677M35.706,58.093c-.264-2.543,5.562-6.226,4.067-6.344-3.219.184-4.821,3.772-6.441,7.531-.593,1.377-2.624,7.251-3.956,6.528s1.726-5.552,2.583-8.421c-.989.725-4.616,3.543-5.55.9-1.5,1.276-4.714,1.968-4.352-1.385-.8,1.416-2.594,3.393-4.747,2.572-2.828-1.079,1.639-10.088,2.75-9.633s-.224,2.507-.574,3.3c-.769,1.754-1.657,3.959-1.064,4.41,1.017.773,3.783-2.925,3.845-3.007.517-.684,1.992-5.156,3.18-4.643s-2.964,6.419-1.411,7.591c.313.237,1.594-.146,2.373-.989.5-.545.331-1.753,2.012-5.762s3.179-9,4.331-8.619.2,2.942-.211,3.9c-1.94,4.482-5.3,11.888-3.713,11.327s2.406-.593,3.956-2.407,1.478-4.8,2.511-4.737.86,1.021.609,1.751c1.017-1.163,4.819-3.613,5.736-1.187,1.087,2.873-5.44,7.022-3.812,6.81a9.854,9.854,0,0,0,5.255-3.315L46.1,27.11s-3.04,2.516-22.38,2.516S1.659,27.163,1.659,27.163l2.572,24.79c1.365-3.88,4.607-11.728,9.717-11.465,2.324.12,5.427,4.6,2.769,4.747-1.125.064-1.239-2.234-2.572-2.572-.961-.244-2.3.538-3.165,1.385C9.256,45.737,5.545,52.4,6.036,55.719c.625,4.234,5.843-1.471,6.725-3.165.622-1.193,1.042-4.728,2.4-4.357s-.119,4.019-1.1,7.245c-1.107,3.622-1.69,7.442-3.078,7s.873-5.115.791-5.934c-1.3,1.2-3.708,4.251-6.783,2.743l1.6,15.395S10.831,78,23.619,78,40.81,74.7,40.81,74.7l1.983-17.83c-1.623,1.58-6.758,4.386-7.087,1.223" transform="translate(-0.733 0)" fill="#d34a47"/>
    </g>
  </g>
</svg>
