<svg xmlns="http://www.w3.org/2000/svg" width="88.187" height="100" viewBox="0 0 88.187 100">
  <g id="HTML5_logo_and_wordmark" transform="translate(-74.6 -100.6)">
    <path id="Path_50" data-name="Path 50" d="M82.621,190.634,74.6,100.6h88.187l-8.021,89.985L118.62,200.6" transform="translate(0 0)" fill="#e44d26"/>
    <path id="Path_51" data-name="Path 51" d="M256,215.954V131h36.048l-6.879,76.811" transform="translate(-137.307 -23.011)" fill="#f16529"/>
    <path id="Path_52" data-name="Path 52" d="M142,176.3h27.71v11.036H154.105l1.021,11.3H169.71V209.65h-24.7m.486,5.542h11.084l.778,8.824,12.348,3.306v11.522l-22.654-6.32" transform="translate(-51.017 -57.299)" fill="#ebebeb"/>
    <path id="Path_53" data-name="Path 53" d="M283.462,176.3H255.8v11.036h26.641m-1,11.3H255.8v11.035h13.612l-1.288,14.341L255.8,227.321v11.473l22.606-6.271" transform="translate(-137.155 -57.299)" fill="#fff"/>
  </g>
</svg>
