<svg xmlns="http://www.w3.org/2000/svg" width="87.989" height="100" viewBox="0 0 87.989 100">
  <g id="javascript-logo" transform="translate(5 -113.4)">
    <path id="path5113" d="M3.167,203.311-5,113.4l87.989.034-8.1,89.808L38.926,213.4Zm65.1-4.907L75.1,121.4H39.063l.275,84.935ZM35.7,132.686H26.949l-.1,46.088L9.859,174.141l.034,10.535L35.7,191.643Z" transform="translate(0 0)" fill="#d4b830"/>
    <path id="path5159" d="M61.652,228.159c-1.132-.343-6.726-1.853-12.423-3.4L38.9,221.982V216.8c0-5.079,0-5.182.515-5.01.275.1,4.049,1.132,8.373,2.334l7.859,2.162.069-22.992.069-22.992h8.579v29.238c0,23.233-.069,29.238-.309,29.238-.172-.034-1.27-.309-2.4-.618Z" transform="translate(-28.835 -37.374)" fill="rgba(235,235,235,0)" opacity="0.986"/>
    <path id="path5157" d="M38.334,221.656,38.3,211.121s10.844,3.054,16.987,4.633l.1-46.054h8.751v58.922Z" transform="translate(-28.441 -36.979)" fill="rgba(235,235,235,0.92)" opacity="0.986"/>
    <path id="path5117" d="M123.4,136.6h36.033L152.6,213.608l-29.2,7.927Zm27.351,64.1,2.368-28.792-17.5,1.956V158.494l18.668-.069.755-10.5-28.174.137.377,38.229,17.021-2.917-.24,8.511-17.159,4.564.172,10.432,23.713-6.177Z" transform="translate(-84.337 -15.238)" fill="#fdd83c"/>
  </g>
</svg>
