<svg id="Symbol_5_1" data-name="Symbol 5 – 1" xmlns="http://www.w3.org/2000/svg" width="274" height="150.064" viewBox="0 0 274 150.064">
  <g id="Group_2" data-name="Group 2" transform="translate(-820 -785.936)">
    <g id="Group_1" data-name="Group 1">
      <text id="a" transform="translate(897 899)" fill="#fff" font-size="90" font-family="TimesNewRomanPSMT, Times New Roman"><tspan x="0" y="0">a</tspan></text>
      <path id="Path_8" data-name="Path 8" d="M-2.6,20.545H-7.573s2.514-4.5,4.978-8.239S2.279,5.578,2.279,5.578s4.806-5.8,9.406-10.23a82.448,82.448,0,0,1,8.994-7.484,106.436,106.436,0,0,1,17.1-10.325,122.579,122.579,0,0,1,19.68-6.872,78.663,78.663,0,0,1,9.015-1.785c4.845-.652,10.367-.824,10.367-.824h9.3s6.282.335,12.289,1.339a111.861,111.861,0,0,1,11.843,2.746l6.865,2.369,6.384,2.725s3.906,1.828,8.06,4.259,8.556,5.466,8.556,5.466a96.832,96.832,0,0,1,9.743,8.116C154.849-.18,160.009,5.927,160.009,5.927s2.846,3.689,5.189,7.329,4.469,7.231,4.469,7.231h-5.322s.867,1.806,1.97,4.773,2.443,7.339,2.443,7.339l-.406.359a34.829,34.829,0,0,1-5.813-3.2,25.589,25.589,0,0,1-4.418-4.124l-.755.927a25.366,25.366,0,0,0-1.51,2.712,25,25,0,0,0-1.3,3.57h-.317s-1.6-4.229-3.591-8.323-4.357-8.054-4.357-8.054v-.475l5.931,4.426.824-.24s-2.778-3.968-6.042-7.655-7.15-7.335-7.15-7.335S136.208,1.8,132.455-.97s-7.592-5.02-7.592-5.02-4.935-2.815-9.509-4.84a90.748,90.748,0,0,0-8.787-3.33s-5.613-1.579-10.779-2.472a88.073,88.073,0,0,0-9.887-1.1H76.839a91.863,91.863,0,0,0-10.23,1.1c-4.854.858-9.152,2.128-9.152,2.128a66.073,66.073,0,0,0-14.191,5.3A87.669,87.669,0,0,0,32.541-2.985S24.372,2.906,20.953,6.2s-6.876,7.393-6.876,7.393L9.25,19.773,15.358,16.7,7.531,32.972l-3.639-7a53.876,53.876,0,0,1-6.179,5.012,12.378,12.378,0,0,1-5.13,1.991Z" transform="translate(912 818)" fill="#fdb824"/>
      <path id="Path_9" data-name="Path 9" d="M.465-.387.6,0H3.5L3.359.719-2.783,3.812Z" transform="translate(924 834)" fill="#fed68d"/>
      <text id="Department_of_Transportation" data-name="Department of Transportation" transform="translate(820 929)" fill="#fff" font-size="23" font-family="TimesNewRomanPSMT, Times New Roman"><tspan x="0" y="0">Department of Transportation</tspan></text>
      <text id="K" transform="translate(826 909)" fill="#fff" font-size="125" font-family="TimesNewRomanPSMT, Times New Roman"><tspan x="0" y="0">K</tspan></text>
      <text id="a-2" data-name="a" transform="translate(1015 899)" fill="#fff" font-size="90" font-family="TimesNewRomanPSMT, Times New Roman"><tspan x="0" y="0">a</tspan></text>
      <text id="n" transform="translate(936 899)" fill="#fff" font-size="90" font-family="TimesNewRomanPSMT, Times New Roman"><tspan x="0" y="0">n</tspan></text>
      <text id="s" transform="translate(980 899)" fill="#fff" font-size="90" font-family="TimesNewRomanPSMT, Times New Roman"><tspan x="0" y="0">s</tspan></text>
      <text id="s-2" data-name="s" transform="translate(1054 899)" fill="#fff" font-size="90" font-family="TimesNewRomanPSMT, Times New Roman"><tspan x="0" y="0">s</tspan></text>
      <text id="A-3" data-name="A" transform="translate(927.778 826.142) rotate(-45)" fill="#fff" font-size="12" font-family="TimesNewRomanPS-BoldMT, Times New Roman" font-weight="700"><tspan x="0" y="0">A</tspan></text>
      <text id="A-4" data-name="A" transform="translate(945 811.032) rotate(-30)" fill="#fff" font-size="12" font-family="TimesNewRomanPS-BoldMT, Times New Roman" font-weight="700"><tspan x="0" y="0">A</tspan></text>
      <text id="S-3" data-name="S" transform="matrix(0.94, -0.342, 0.342, 0.94, 952.262, 806.531)" fill="#fff" font-size="12" font-family="TimesNewRomanPS-BoldMT, Times New Roman" font-weight="700"><tspan x="0" y="0">S</tspan></text>
      <text id="T" transform="matrix(0.94, -0.342, 0.342, 0.94, 959.262, 803.531)" fill="#fff" font-size="12" font-family="TimesNewRomanPS-BoldMT, Times New Roman" font-weight="700"><tspan x="0" y="0">T</tspan></text>
      <text id="R" transform="translate(966.945 800.468) rotate(-13)" fill="#fff" font-size="12" font-family="TimesNewRomanPS-BoldMT, Times New Roman" font-weight="700"><tspan x="0" y="0">R</tspan></text>
      <text id="A-5" data-name="A" transform="translate(976.059 798.243) rotate(-5)" fill="#fff" font-size="12" font-family="TimesNewRomanPS-BoldMT, Times New Roman" font-weight="700"><tspan x="0" y="0">A</tspan></text>
      <text id="P" transform="translate(988.697 796.953)" fill="#fff" font-size="12" font-family="TimesNewRomanPS-BoldMT, Times New Roman" font-weight="700"><tspan x="0" y="0">P</tspan></text>
      <text id="E" transform="translate(996.638 796.92) rotate(3)" fill="#fff" font-size="12" font-family="TimesNewRomanPS-BoldMT, Times New Roman" font-weight="700"><tspan x="0" y="0">E</tspan></text>
      <text id="R-2" data-name="R" transform="translate(1004.907 797.631) rotate(8)" fill="#fff" font-size="12" font-family="TimesNewRomanPS-BoldMT, Times New Roman" font-weight="700"><tspan x="0" y="0">R</tspan></text>
      <text id="A-6" data-name="A" transform="matrix(0.946, 0.326, -0.326, 0.946, 1016.577, 800.001)" fill="#fff" font-size="12" font-family="TimesNewRomanPS-BoldMT, Times New Roman" font-weight="700"><tspan x="0" y="0">A</tspan></text>
      <text id="S-4" data-name="S" transform="translate(1025.068 802.769) rotate(25)" fill="#fff" font-size="12" font-family="TimesNewRomanPS-BoldMT, Times New Roman" font-weight="700"><tspan x="0" y="0">S</tspan></text>
      <text id="P-2" data-name="P" transform="translate(1031.408 805.712) rotate(28)" fill="#fff" font-size="12" font-family="TimesNewRomanPS-BoldMT, Times New Roman" font-weight="700"><tspan x="0" y="0">P</tspan></text>
      <text id="E-2" data-name="E" transform="matrix(0.809, 0.588, -0.588, 0.809, 1038.763, 809.699)" fill="#fff" font-size="12" font-family="TimesNewRomanPS-BoldMT, Times New Roman" font-weight="700"><tspan x="0" y="0">E</tspan></text>
      <text id="R-3" data-name="R" transform="matrix(0.766, 0.643, -0.643, 0.766, 1045.328, 814.28)" fill="#fff" font-size="12" font-family="TimesNewRomanPS-BoldMT, Times New Roman" font-weight="700"><tspan x="0" y="0">R</tspan></text>
      <text id="A-7" data-name="A" transform="translate(1052.421 820.078) rotate(45)" fill="#fff" font-size="12" font-family="TimesNewRomanPS-BoldMT, Times New Roman" font-weight="700"><tspan x="0" y="0">A</tspan></text>
      <text id="D" transform="matrix(0.766, -0.643, 0.643, 0.766, 934.624, 819.371)" fill="#fff" font-size="12" font-family="TimesNewRomanPS-BoldMT, Times New Roman" font-weight="700"><tspan x="0" y="0">D</tspan></text>
      <path id="Path_13" data-name="Path 13" d="M-1.377-2.013.991-.743l2.575-1.1L3.257.733l1.716,2.2-2.712.206-1.27,2.4-1.133-2.4-2.849-.481L-1.034.733Z" transform="translate(946 827)" fill="#fdb824"/>
      <path id="Path_14" data-name="Path 14" d="M-.785-2.113l2.437,1.4,2.3-.83-.236,2.7L5.276,3.066l-2.738.3L1.1,5.616-.032,3.146l-2.785-.563L-1.034.733Z" transform="matrix(0.996, -0.087, 0.087, 0.996, 948.85, 840.093)" fill="#fdb824"/>
      <path id="Path_17" data-name="Path 17" d="M-.34-2.288,1.937-.52,4.759-1.4l-.824,2.61,1.72,2.566-2.9-.018L1.065,5.991-.12,3.268l-2.674-.626L-.507.882Z" transform="matrix(0.996, -0.087, 0.087, 0.996, 956.85, 832.093)" fill="#fdb824"/>
      <path id="Path_18" data-name="Path 18" d="M-.547-2.378l2.2,1.661,2.614-.73L3.643,1.231,5.129,3.6,2.175,3.339.538,5.73-.156,2.937-2.983,2.16-.807.6Z" transform="matrix(0.996, -0.087, 0.087, 0.996, 969.85, 836.093)" fill="#fdb824"/>
      <path id="Path_20" data-name="Path 20" d="M-.2-2.4,2.183-.542,4.719-1.2,3.807,1.157,5.5,3.63,2.538,3.37.979,5.69.095,3.071l-2.77-.791L-.462.654Z" transform="matrix(0.996, -0.087, 0.087, 0.996, 952.85, 821.093)" fill="#fdb824"/>
      <path id="Path_21" data-name="Path 21" d="M.293-2.6,2.528-.731l2.638-.4-1.3,2.289L5.183,3.705,2.538,3.37.648,5.52l-.618-2.8L-2.727,1.429-.162.446Z" transform="matrix(0.996, -0.087, 0.087, 0.996, 961.85, 816.093)" fill="#fdb824"/>
      <path id="Path_22" data-name="Path 22" d="M-1.114-2.494,1.456-.876l2.565-1.28L3.459.747l2,2.2-3,.352L.864,5.541-.295,2.974l-2.824-.659L-1.1.571Z" transform="translate(991.17 831.143) rotate(-39)" fill="#fdb824"/>
      <path id="Path_27" data-name="Path 27" d="M-.962-1.634,1.379-.239,4.042-1.483,3.58,1.155,5.491,3.46l-2.639.258-1.5,2.4L.074,3.607l-2.831-.434,2.18-1.917Z" transform="matrix(0.891, 0.454, -0.454, 0.891, 987.927, 819.612)" fill="#fdb824"/>
      <path id="Path_28" data-name="Path 28" d="M-1.05-1.828,1.673-.162,4.24-1.118,3.527,1.415l1.69,2.424-2.94.2L.761,6.469-.178,3.561-2.986,2.9-.593.958Z" transform="matrix(0.799, 0.602, -0.602, 0.799, 999.3, 819.592)" fill="#fdb824"/>
      <path id="Path_29" data-name="Path 29" d="M-1.422-2.329.857-.685,3.552-2.241,2.936.726,4.761,3.052l-2.78.158L.445,5.468-.731,2.986l-2.807-.817L-1.256.687Z" transform="translate(993.151 808.592) rotate(33)" fill="#fdb824"/>
      <path id="Path_30" data-name="Path 30" d="M-1.679-.068,1.388.2,3.427-1.6l.284,2.745L6.284,2.856,3.573,3.905l-.6,2.927L1,4.59l-2.759.339,1.14-2.457Z" transform="matrix(0.996, -0.087, 0.087, 0.996, 1000.85, 831.093)" fill="#fdb824"/>
      <path id="Path_31" data-name="Path 31" d="M-.689-2.339,2.023-.554,4.695-1.873,3.934.613,5.945,3.247l-2.822.314L1.618,5.947.388,3.485l-3.045-.831L-.28.847Z" transform="translate(1002.375 808.596) rotate(39)" fill="#fdb824"/>
      <path id="Path_32" data-name="Path 32" d="M-2.261-.589.588-.34,2.78-2.266,3.057.3,5.645,2.094,3.138,3.145,2.719,6.136.538,4l-2.806.523L-1.04,1.949Z" transform="matrix(0.996, -0.087, 0.087, 0.996, 1007.85, 822.093)" fill="#fdb824"/>
      <path id="Path_33" data-name="Path 33" d="M-.573-2.162,1.9-.523,4.7-1.676,3.938,1.358,5.984,3.487,2.95,3.637,1.573,6.157.584,3.78l-3.011-.839,2.1-2Z" transform="translate(1010.54 836.415) rotate(-17)" fill="#fdb824"/>
      <path id="Path_34" data-name="Path 34" d="M-2.534-1.428.445-.869,2.258-2.593,2.9.428,5.249,1.763l-2.73.906L1.7,5.531-.037,3.559-3,3.849l1.489-2.677Z" transform="matrix(0.996, -0.087, 0.087, 0.996, 1011.85, 812.093)" fill="#fdb824"/>
      <path id="Path_35" data-name="Path 35" d="M-1.686-2.168,1.1-.888l2.5-1.46L3.4.881,5.367,2.731,2.426,3.18l-1.1,2.742L.01,3.361-3.025,3.1-1.034.733Z" transform="matrix(0.996, -0.087, 0.087, 0.996, 1017.85, 827.093)" fill="#fdb824"/>
      <path id="Path_36" data-name="Path 36" d="M-1.464-1.806,1.3-.78,3.656-2.6,3.475.728l2.31,1.567-3.027.9L1.823,5.807.493,3.432-2.49,3.108-.63.855Z" transform="matrix(0.996, -0.087, 0.087, 0.996, 1020.85, 816.093)" fill="#fdb824"/>
      <path id="Path_37" data-name="Path 37" d="M-.785-2.113l2.437,1.4L4.036-1.56,3.711,1.148,5.38,3.514l-2.686-.13L.923,5.869-.389,3.114-3.01,2.78-1.034.733Z" transform="matrix(0.996, -0.087, 0.087, 0.996, 1020.85, 843.093)" fill="#fdb824"/>
      <path id="Path_38" data-name="Path 38" d="M-1.034.733Z" transform="matrix(0.996, -0.087, 0.087, 0.996, 1020.85, 843.093)" fill="#dc1717" opacity="0.31"/>
      <path id="Path_39" data-name="Path 39" d="M-1.586-1.848l2.7,1.271L3.627-1.727l-.473,2.9L5.242,3.3l-3.036.3L.7,6.069-.368,3.592-3.431,3.1l2.4-2.371Z" transform="matrix(0.996, -0.087, 0.087, 0.996, 1026.85, 832.093)" fill="#fdb824"/>
      <path id="Path_40" data-name="Path 40" d="M-1.114-2.042,1.419-.691l2.559-1.2L3.711,1.148,5.536,2.979l-3,.391L1.28,5.916.11,3.335l-2.983-.324L-1.034.733Z" transform="matrix(0.996, -0.087, 0.087, 0.996, 1029.85, 821.093)" fill="#fdb824"/>
      <path id="Path_41" data-name="Path 41" d="M-1.235-2.272,1.235-.738,3.869-1.982l-.4,3.007L5.276,3.066l-2.824.208L.754,5.65-.28,3.124l-3.067-.436L-1.034.733Z" transform="matrix(0.996, -0.087, 0.087, 0.996, 1037.85, 827.093)" fill="#fdb824"/>
      <path id="Path_42" data-name="Path 42" d="M-.487-2.395,1.8-.924l2.592-.761L3.972.96,5.42,3.235l-2.779.212L1.2,5.878-.032,3.146l-2.876-.639L-.872.756Z" transform="matrix(0.996, -0.087, 0.087, 0.996, 1033.85, 840.093)" fill="#fdb824"/>
      <path id="Path_43" data-name="Path 43" d="M-1.162-1.621,1.456-.285,4.122-1.655l-.411,2.8L5.649,3.429l-2.695.622L1.4,6.4.027,3.877-2.9,3.261-.716,1.347Z" transform="translate(1041.424 846.747) rotate(13)" fill="#fdb824"/>
      <path id="Path_44" data-name="Path 44" d="M-.449-2.83l2.1,2.113L4.6-1.589,3.711,1.148,4.94,3.883,2.029,3.629.209,5.6-.469,2.955-3.121,1.72-.643.289Z" transform="matrix(0.996, -0.087, 0.087, 0.996, 1044.85, 835.093)" fill="#fdb824"/>
      <path id="Path_45" data-name="Path 45" d="M-1.916-2.215.485-.943,3.353-2.1,2.992.673,4.854,2.9,2.077,3,.592,5.619-.755,2.953l-2.926-.359L-1.369.6Z" transform="translate(1051.744 843.646) rotate(22)" fill="#fdb824"/>
      <path id="Path_26" data-name="Path 26" d="M-.225-1.927,2.063-.234,4.643-1.382,3.927,1.2,5.681,3.447l-2.629.237-1.6,2.292L.325,3.453l-2.6-.8L-.188.9Z" transform="translate(982.817 808.63) rotate(24)" fill="#fdb824"/>
      <path id="Path_25" data-name="Path 25" d="M-.865-2.032,1.621-.593,4.469-1.63,3.751,1.193l1.8,1.987-2.479.453L1.4,6.121.415,3.4l-2.906-.356L-.434,1.07Z" transform="translate(976.671 821.664) rotate(20)" fill="#fdb824"/>
      <path id="Path_23" data-name="Path 23" d="M.225-3.021,2.093-.709,4.935-.743,3.541,1.739,4.305,4.3,1.628,3.7-.729,5.553-.86,2.389-3.479,1.125-.505-.231Z" transform="matrix(0.996, -0.087, 0.087, 0.996, 980.85, 832.093)" fill="#fdb824"/>
      <path id="Path_24" data-name="Path 24" d="M-1.433-2.169,1.2-.687,3.6-1.931,3.353.948,5.276,3.066l-2.738.3L.874,5.8-.437,3.065l-2.751-.286L-.9.738Z" transform="translate(972.564 811.696) rotate(17)" fill="#fdb824"/>
      <path id="Path_19" data-name="Path 19" d="M-1.051-2.152,1.442-.776,3.886-1.887,3.612,1.14,5.321,3.176,2.538,3.37,1.1,5.616-.032,3.146l-2.785-.563L-1.034.733Z" transform="matrix(0.998, 0.07, -0.07, 0.998, 966.123, 826.898)" fill="#fdb824"/>
      <path id="Path_16" data-name="Path 16" d="M-.374-2.071,1.948-.645l2.618-.7-.705,2.5L5.9,3.528,2.863,3.419,1.513,5.936.33,3.323-2.385,2.8-.514.778Z" transform="matrix(0.996, -0.087, 0.087, 0.996, 959.85, 843.093)" fill="#fdb824"/>
      <path id="Path_15" data-name="Path 15" d="M-1.218-2.116,1.152-.392l2.946-1L2.941,1.47,4.785,3.792l-2.91-.212L.285,6.093l-.9-2.444-2.75-1.111L-1.034.733Z" transform="translate(942.159 847.667) rotate(-22)" fill="#fdb824"/>
      <path id="Path_46" data-name="Path 46" d="M-2.688,0h3.7L4.072,4.159,3.2,4.45,0,2Z" transform="translate(1061 834)" fill="#fed68d"/>
      <path id="Path_11" data-name="Path 11" d="M-.013-.36,2.676.738,5.025-.748,4.937,2.058l2.3,1.527L4.408,4.617,3.733,7.192,2.326,4.96-.98,4.869.99,2.729Z" transform="translate(936.06 838.465) rotate(-72)" fill="#fdb824"/>
      <path id="Path_10" data-name="Path 10" d="M-.053-.1,2.764.706l.508.146L5.018-.544l.228.066L5.141.371l0,1.9L7.408,3.96l-2.7.792-.975,2.44L2.213,5.217-.634,4.9.982,2.8Z" transform="matrix(0.961, -0.276, 0.276, 0.961, 930.141, 842.966)" fill="#fdb824"/>
    </g>
  </g>
</svg>
