<svg xmlns="http://www.w3.org/2000/svg" xmlns:xlink="http://www.w3.org/1999/xlink" width="91.364" height="100" viewBox="0 0 91.364 100">
  <defs>
    <linearGradient id="linear-gradient" x1="-4.183" y1="0.143" x2="-3.174" y2="0.794" gradientUnits="objectBoundingBox">
      <stop offset="0" stop-color="#909ca9"/>
      <stop offset="1" stop-color="#ededee"/>
    </linearGradient>
    <linearGradient id="linear-gradient-2" x1="-8.133" y1="37.388" x2="-6.64" y2="37.388" gradientUnits="objectBoundingBox">
      <stop offset="0" stop-color="#939fab"/>
      <stop offset="1" stop-color="#dcdee1"/>
    </linearGradient>
    <radialGradient id="radial-gradient" cx="-3665.782" cy="341.142" r="10.756" gradientTransform="matrix(-0.691, -0.104, -0.208, 1.382, -6806.215, -485.709)" gradientUnits="userSpaceOnUse">
      <stop offset="0" stop-color="#ee352c"/>
      <stop offset="1" stop-color="#a91d22"/>
    </radialGradient>
  </defs>
  <g id="microsoft-sql-server" transform="translate(-607.963 -262.999)">
    <g id="Group_30" data-name="Group 30" transform="translate(275.451 180.265)">
      <path id="Path_81" data-name="Path 81" d="M390.2,463.277l-20.026,6.539-17.423,7.689-4.874,1.287c-1.241,1.181-2.543,2.377-3.951,3.588-1.544,1.332-2.982,2.543-4.087,3.421a30.49,30.49,0,0,0-3.966,3.935,17.844,17.844,0,0,0-2.937,4.965,8.335,8.335,0,0,0,1.181,7.493c2.059,3.027,6.161,6.115,10.944,8.219a69.524,69.524,0,0,0,9.627,3.224,127.458,127.458,0,0,0,20.526,2.922,23.52,23.52,0,0,0,2.649,0,36.069,36.069,0,0,0,1.953-3.708,93.757,93.757,0,0,0,7.1-18.785,89.016,89.016,0,0,0,1.816-13.018c.106-1.468.151-6.388.061-8.053a56.543,56.543,0,0,0-.757-7.1,1.637,1.637,0,0,1-.046-.621,26.129,26.129,0,0,1,2.709-.818l-.5-1.181h0Zm-4.571,2.679a49.027,49.027,0,0,1,.787,7.584,4.057,4.057,0,0,1-.015,1.029c-.121,0-2.558-1.438-4.3-2.528-1.514-.954-4.39-2.861-4.844-3.224-.152-.106-.137-.121,1.1-.545C380.463,467.561,385.459,465.956,385.625,465.956Zm-10.2,3.361a5.023,5.023,0,0,1,1.317.711,93.831,93.831,0,0,0,9.173,5.1c.56.242.62.151-.666,1.029a65.98,65.98,0,0,1-10.4,5.585c-.742.333-1.362.59-1.377.59a3.924,3.924,0,0,1,.181-.832,44.629,44.629,0,0,0,1.62-10.642c.015-1.514.015-1.514.151-1.559-.03.015-.015.015,0,.015Zm-2.1.8a32.63,32.63,0,0,1-.091,4.4,38.521,38.521,0,0,1-1.392,6.585,10.113,10.113,0,0,1-.348,1.059,26.63,26.63,0,0,1-2.816-2.74,20.482,20.482,0,0,1-2.785-4.057,12.754,12.754,0,0,1-.848-2.059C365.281,473.146,373.258,470.059,373.319,470.119Zm-9.9,3.89a.056.056,0,0,1,.046.015,2.827,2.827,0,0,1,.227.545,20.459,20.459,0,0,0,2.513,4.5,25.619,25.619,0,0,0,3.5,3.769c.363.3.7.59.742.636.091.091.121.076-2.346,1.014-2.861,1.09-5.979,2.18-9.551,3.33q-1.28.413-2.558.833c-.137.046-.091-.03.3-.651a85.121,85.121,0,0,0,5.979-12.049c.257-.666.515-1.332.56-1.483a.546.546,0,0,1,.333-.394A1.467,1.467,0,0,1,363.419,474.009Zm-3.027,1.256a33.867,33.867,0,0,1-1.484,3.133c-1.468,2.861-3.073,5.677-5.222,9.1-.363.59-.711,1.135-.757,1.2-.076.106-.106.076-.348-.394a13.88,13.88,0,0,1-1.166-3.512,14.132,14.132,0,0,1,.076-4.511c.2-.938.182-.923.636-1.15C354.064,478.142,360.331,475.205,360.392,475.266Zm26.111,1.06v.636a82.344,82.344,0,0,1-.893,11.383c-.091.59-.167,1.074-.182,1.09,0,0-.439-.121-.954-.273a39.062,39.062,0,0,1-6.963-2.982,30.829,30.829,0,0,1-3.542-2.18c.015-.015.651-.348,1.392-.742a89.19,89.19,0,0,0,8.28-4.859c.923-.621,2.316-1.62,2.619-1.892l.242-.182Zm-37.54,4.48c.061,0,.045.121-.045.666-.061.394-.136,1.12-.166,1.62a11.2,11.2,0,0,0,1.332,6.085,12.594,12.594,0,0,1,.53,1.15c-.106.091-10.127,3.028-13.275,3.89-.938.257-1.756.484-1.817.5-.106.03-.121.015-.076-.242.348-2.225,2.044-5.131,4.4-7.584a19.579,19.579,0,0,1,4.98-3.815c1.544-.878,3.92-2.195,4.1-2.255C348.933,480.806,348.948,480.806,348.963,480.806Zm23.614,4.223a6.116,6.116,0,0,1,.817.439,45.6,45.6,0,0,0,11.595,4.511l.348.076-.484.272c-2.013,1.12-8.628,3.875-15.394,6.4-.984.363-1.953.727-2.135.8a1.092,1.092,0,0,1-.348.106c0-.015.273-.545.621-1.2a74.69,74.69,0,0,0,4.768-10.853c.121-.288.2-.545.212-.56Zm-2.407.787a4.353,4.353,0,0,1-.257.7,95.856,95.856,0,0,1-5.253,10.581c-.56,1-1.029,1.8-1.045,1.8s-.469-.273-1.014-.606a31.129,31.129,0,0,1-7.917-6.736l-.273-.333,1.377-.378a98.833,98.833,0,0,0,13.29-4.586C369.671,486.013,370.155,485.816,370.17,485.816Zm14.955,5.222h0c.015.348-.757,3.466-1.393,5.722-.53,1.892-.984,3.376-1.816,5.994-.363,1.151-.681,2.1-.7,2.1a1,1,0,0,1-.2-.045,63.268,63.268,0,0,1-12.306-3.466c-1.06-.424-2.573-1.105-2.664-1.181a17.663,17.663,0,0,1,2.028-.954c6.887-3.012,14.032-6.433,16.484-7.9A1.973,1.973,0,0,1,385.125,491.038ZM350.6,492.219c.03.03-1.892,2.8-4.587,6.569-.938,1.317-2.028,2.861-2.437,3.436s-1.029,1.484-1.377,2.028l-.636.984-.681-.575a25.215,25.215,0,0,1-2.815-2.876,12.423,12.423,0,0,1-2.528-4.889c-.167-.727-.167-1.09-.015-1.135.227-.061,4.269-1.014,8.053-1.892,2.1-.484,4.541-1.059,5.419-1.271S350.583,492.219,350.6,492.219Zm1.937.742.484.545a28.423,28.423,0,0,0,7.1,5.813,3.977,3.977,0,0,1,.817.53c-.106.076-9.355,3.36-13.638,4.844-2.407.848-4.39,1.529-4.4,1.529a2.608,2.608,0,0,1-.3-.2l-.272-.2.439-.636c1.423-2.059,3.209-4.314,7.1-9.006l2.679-3.224Zm12.08,8.643c.015-.015.681.227,1.5.53a48.445,48.445,0,0,0,5.616,1.741,62.16,62.16,0,0,0,8.492,1.468c.333.03.515.061.454.106-.106.061-2.331.8-3.966,1.317-2.6.817-10.551,3.163-17.029,5.025-1.2.348-2.225.636-2.286.651a1.2,1.2,0,0,1-.651-.167,10.968,10.968,0,0,1,.8-1.014A89.856,89.856,0,0,0,363.692,503C364.191,502.24,364.615,501.619,364.615,501.6Zm-2.664.076c.015.015-1.06,1.741-2.936,4.707-.8,1.256-1.7,2.679-2.014,3.179-.3.484-.757,1.241-1.014,1.665l-.439.772-.227-.061c-.545-.151-4.375-1.5-5.389-1.907a37.466,37.466,0,0,1-3.527-1.62,14.74,14.74,0,0,1-2.6-1.65c.03-.015,2.1-.575,4.6-1.256,6.63-1.8,10.308-2.846,12.715-3.6A6.06,6.06,0,0,1,361.951,501.68ZM380.8,506.1h.015c.061.152-2.391,6.963-3.285,9.112-.2.484-.272.606-.378.59-.257-.015-3.814-.514-5.979-.832-3.769-.575-10.1-1.68-11.686-2.043l-.363-.076,2.255-.515c4.844-1.09,7.175-1.68,9.536-2.407a67.411,67.411,0,0,0,8.916-3.436A7.3,7.3,0,0,1,380.8,506.1Z" transform="translate(0 -333.859)" fill="url(#linear-gradient)"/>
      <path id="Path_82" data-name="Path 82" d="M478.105,82.735a96.216,96.216,0,0,0-9.173,3.3,57.279,57.279,0,0,0-10.55,5.3,8,8,0,0,0-2.043,2.044,1.414,1.414,0,0,0-.091.515l2.028,1.922,4.829,1.544,11.489,2.059,13.139,2.255.136-1.135c-.045,0-.076-.015-.121-.015l-1.726-.273-.348-.621c-1.786-3.149-3.754-7.054-4.9-9.688a50.066,50.066,0,0,1-2.21-6.1c-.257-1.029-.288-1.09-.454-1.1h0Zm-.242.772h.016c.015.015.076.439.136.938a31.623,31.623,0,0,0,1.468,6.373c.56,1.665.56,1.574-.091,1.377-1.544-.424-8.461-1.62-13.472-2.316-.8-.106-1.483-.212-1.483-.227-.061-.061,3.618-1.983,5.237-2.74C471.748,85.959,477.439,83.583,477.863,83.507Zm-14.592,6.781.591.2a90.226,90.226,0,0,0,15.727,3c.5.045.923.091.938.091a7,7,0,0,1-.954.5c-2.149,1.075-4.511,2.392-6.146,3.406a6.271,6.271,0,0,1-.984.545c-.061,0-.378-.061-.711-.106l-.605-.091-1.514-1.484c-2.664-2.588-4.753-4.586-5.555-5.343Zm-.605.469,2.134,2.664c1.165,1.468,2.346,2.906,2.6,3.224a4.964,4.964,0,0,1,.454.591c-.061.045-3.088-.545-4.693-.908-1.65-.379-2.331-.56-3.345-.878l-.833-.273v-.212c.015-1.014,1.3-2.528,3.482-4.072l.2-.136ZM480.8,94.391c.061,0,.136.136.318.545.515,1.135,2.119,4.193,2.513,4.783.121.2.333.212-1.8-.136-5.131-.833-6.781-1.1-6.781-1.135a1.571,1.571,0,0,1,.348-.227,29.551,29.551,0,0,0,4.617-3.194c.348-.288.666-.56.726-.606C480.754,94.391,480.785,94.376,480.8,94.391Z" transform="translate(-108.556 0)" fill="url(#linear-gradient-2)"/>
      <path id="Path_83" data-name="Path 83" d="M400.8,167.757a1.508,1.508,0,0,0-.015,1.317,5.98,5.98,0,0,0,1.423,1.68s6.736,6.569,7.553,7.508a21.045,21.045,0,0,1,5.495,14.38,23.284,23.284,0,0,1-2.392,10.884c-3.149,6.872-9.794,14.456-20.041,22.872l1.5-.5A48.129,48.129,0,0,1,399.7,222.7a191.546,191.546,0,0,1,24.991-11.186c14.168-5.328,37.464-11.565,50.724-13.593l1.378-.212-.212-.333a46.673,46.673,0,0,0-3.043-4.284,36.371,36.371,0,0,0-10.747-8.946c-5.934-3.315-13.608-5.9-23.326-7.826-1.832-.363-5.858-1.06-9.128-1.559-6.933-1.074-11.413-1.816-16.348-2.664-1.771-.3-4.42-.757-6.176-1.135a39.224,39.224,0,0,1-4.011-1.075C402.709,169.468,401.135,169.044,400.8,167.757Zm3.906,3.784a4.221,4.221,0,0,1,.575.182c.575.2,1.317.424,2.2.666q1,.274,2,.53c.908.227,1.665.439,1.68.439.106.106,1.635,4.995,2.15,6.872.2.712.348,1.317.333,1.317a3.059,3.059,0,0,1-.379-.59,31.507,31.507,0,0,0-7.811-8.825A6.453,6.453,0,0,1,404.707,171.542Zm7.447,2.059a5.946,5.946,0,0,1,.817.136c2.573.575,7.19,1.453,10.142,1.953a3.706,3.706,0,0,1,.893.2,1.529,1.529,0,0,1-.409.257c-.5.257-2.513,1.453-3.178,1.907a29,29,0,0,0-4.284,3.421c-.439.439-.818.8-.818.8s-.091-.257-.167-.575a49.052,49.052,0,0,0-2.709-7.417,6.5,6.5,0,0,1-.3-.7C412.139,173.615,412.139,173.6,412.155,173.6Zm13.109,2.5a5.824,5.824,0,0,1,.545,1.68,24.78,24.78,0,0,1,.727,6.933c-.03.636-.061,1.226-.091,1.3l-.045.151-.787-.257c-1.62-.515-4.253-1.287-6.509-1.922-1.287-.348-2.331-.666-2.331-.7a35.781,35.781,0,0,1,2.679-2.679A70.249,70.249,0,0,1,425.263,176.1Zm1.044.151c.046-.045,6.267,1.029,9.1,1.574,2.1.409,5.162,1.044,5.343,1.12.091.03-.227.212-1.241.666A65.7,65.7,0,0,0,429.593,185c-.772.515-1.423.938-1.438.938a8.259,8.259,0,0,1-.03-.969,21.141,21.141,0,0,0-1.635-8.234A2.29,2.29,0,0,1,426.308,176.249Zm16.091,3.179a11.385,11.385,0,0,1-.333,2,37.947,37.947,0,0,1-3.814,8.749,9.98,9.98,0,0,1-.636,1.029,6.461,6.461,0,0,1-.908-.484,49.287,49.287,0,0,0-5.934-2.906c-.605-.257-1.135-.469-1.15-.5-.106-.091,4.768-3.315,7.341-4.859C439.008,181.214,442.338,179.367,442.4,179.428Zm1.15.182c.136,0,2.891.757,4.329,1.181a89.305,89.305,0,0,1,10.308,3.769l1.1.5-.772.181a112.836,112.836,0,0,0-17.453,5.4c-.439.182-.833.333-.863.333a3.9,3.9,0,0,1,.318-.772,30.654,30.654,0,0,0,2.921-10.081C443.458,179.836,443.5,179.609,443.549,179.609Zm-27.428,6.3c.045-.046,2.149.454,3.285.772,1.726.485,5.389,1.711,5.389,1.8,0,.015-.409.363-.893.787-1.983,1.65-3.89,3.39-6.176,5.6-.681.651-1.256,1.181-1.286,1.181s-.045-.091-.03-.212a34.126,34.126,0,0,0-.212-9.128C416.151,186.285,416.105,185.922,416.121,185.906Zm44.215.046a29.07,29.07,0,0,1-1.6,2.5c-.908,1.3-2.241,3.028-5.253,6.812-1.589,2-3.376,4.253-3.966,5.01-.606.757-1.105,1.392-1.12,1.392a5.224,5.224,0,0,1-.424-.605,31.279,31.279,0,0,0-6.131-6.766c-.454-.379-.953-.787-1.12-.908a1.688,1.688,0,0,1-.3-.257c0-.045,2.573-1.151,4.526-1.938,3.421-1.393,8.083-3.058,11.58-4.133C458.353,186.482,460.305,185.922,460.336,185.952Zm1.165.3a3.489,3.489,0,0,1,.863.424,51.342,51.342,0,0,1,10.127,7.6c.8.787,2.785,2.846,2.755,2.861,0,0-.7.061-1.514.121a149.207,149.207,0,0,0-22.372,3.724c-.53.121-1,.227-1.029.227s.56-.59,1.3-1.3c4.6-4.435,6.706-7.235,9.188-12.231.348-.742.651-1.377.681-1.423Zm-33.71,3.451c.212.045,2.18.969,3.663,1.71,1.362.681,3.406,1.771,3.512,1.862.015.015-.712.394-1.6.833-2.846,1.423-5.283,2.77-7.826,4.314-.727.439-1.332.8-1.347.8-.061,0-.046-.061.363-.8a31.607,31.607,0,0,0,3.073-8.34c.06-.227.121-.378.166-.378Zm-1.968.363a28.893,28.893,0,0,1-.787,2.921,37.27,37.27,0,0,1-2.679,6.146c-.242.424-.606,1.044-.8,1.392l-.378.605-.848-.817a11.119,11.119,0,0,0-2.815-2.074,4.065,4.065,0,0,1-.727-.424c0-.121,2.588-2.467,4.571-4.163,1.423-1.226,4.42-3.633,4.465-3.587Zm12.034,4.95.742.484a57.559,57.559,0,0,1,5.222,3.86c.863.711,2.528,2.21,2.861,2.573l.181.2-1.226.348c-6.933,1.922-12.291,3.633-18.543,5.934-.7.257-1.287.469-1.332.469-.091,0-.167.076,1.393-1.362a66.458,66.458,0,0,0,10.172-11.686Zm-3.164.787c.03.03-2.044,2.952-3.285,4.6-1.483,1.968-4.117,5.268-5.934,7.417-.757.893-1.407,1.635-1.438,1.65-.046.015-.061-.212-.061-.56a12.687,12.687,0,0,0-1.287-5.449c-.348-.7-.409-.863-.333-.938.288-.257,4.692-2.77,7.477-4.269,1.877-1,4.813-2.482,4.859-2.452ZM415.56,200.5a6.685,6.685,0,0,1,.787.394,16.625,16.625,0,0,1,2.6,1.756,4.513,4.513,0,0,1-.878.726c-1.438,1.029-3.618,2.679-4.889,3.694-1.332,1.06-1.377,1.09-1.226.863a27.9,27.9,0,0,0,2.028-3.5,28.177,28.177,0,0,0,1.271-3.164A2.567,2.567,0,0,1,415.56,200.5Zm5.1,4c.075-.015.167.121.575.727a10.921,10.921,0,0,1,1.7,4.4l.03.3-2.073.8c-3.709,1.438-7.13,2.861-9.446,3.92-.651.3-1.786.848-2.528,1.211s-1.347.666-1.347.651.469-.363,1.044-.787A61.035,61.035,0,0,0,420,205.236c.318-.379.606-.727.636-.742h.03Zm-2.346.575a31.993,31.993,0,0,1-2.846,3.209,50.206,50.206,0,0,1-9.4,7.584c-.454.288-.863.545-.908.575-.106.061.03-.091,1.6-1.8,1-1.075,1.756-1.983,2.619-3.1A5.117,5.117,0,0,1,410.9,210.1C413.124,208.491,418.255,205.009,418.315,205.07Z" transform="translate(-52.913 -74.593)" fill="url(#radial-gradient)"/>
    </g>
  </g>
</svg>
