<svg xmlns="http://www.w3.org/2000/svg" xmlns:xlink="http://www.w3.org/1999/xlink" width="100" height="61.234" viewBox="0 0 100 61.234">
  <defs>
    <linearGradient id="linear-gradient" x1="0.682" y1="0.175" x2="0.278" y2="0.898" gradientUnits="objectBoundingBox">
      <stop offset="0" stop-color="#41873f"/>
      <stop offset="0.329" stop-color="#418b3d"/>
      <stop offset="0.635" stop-color="#419637"/>
      <stop offset="0.932" stop-color="#3fa92d"/>
      <stop offset="1" stop-color="#3fae2a"/>
    </linearGradient>
    <linearGradient id="linear-gradient-2" x1="0.433" y1="0.552" x2="1.592" y2="-0.183" gradientUnits="objectBoundingBox">
      <stop offset="0.138" stop-color="#41873f"/>
      <stop offset="0.403" stop-color="#54a044"/>
      <stop offset="0.714" stop-color="#66b848"/>
      <stop offset="0.908" stop-color="#6cc04a"/>
    </linearGradient>
    <linearGradient id="linear-gradient-3" x1="-44.138" y1="0.134" x2="53.279" y2="0.134" gradientUnits="objectBoundingBox">
      <stop offset="0.092" stop-color="#6cc04a"/>
      <stop offset="0.286" stop-color="#66b848"/>
      <stop offset="0.597" stop-color="#54a044"/>
      <stop offset="0.862" stop-color="#41873f"/>
    </linearGradient>
    <linearGradient id="linear-gradient-4" x1="-0.044" y1="0.5" x2="1.015" y2="0.5" xlink:href="#linear-gradient-3"/>
    <linearGradient id="linear-gradient-5" x1="-97.138" y1="0.362" x2="0.279" y2="0.362" xlink:href="#linear-gradient-3"/>
    <linearGradient id="linear-gradient-6" x1="-1.039" y1="0.503" x2="1.008" y2="0.503" xlink:href="#linear-gradient-3"/>
    <linearGradient id="linear-gradient-7" x1="1.306" y1="-2.111" x2="0.044" y2="2.016" xlink:href="#linear-gradient"/>
  </defs>
  <g id="nodejs-1" transform="translate(-0.231 0)">
    <path id="Path_67" data-name="Path 67" d="M208.206,211.895a1.983,1.983,0,0,1-.949-.249l-3.006-1.786c-.452-.249-.226-.339-.09-.384a5.483,5.483,0,0,0,1.356-.61.208.208,0,0,1,.226.022l2.306,1.379a.287.287,0,0,0,.271,0l9.019-5.222a.26.26,0,0,0,.136-.249v-10.42a.26.26,0,0,0-.136-.249l-9.019-5.2a.286.286,0,0,0-.271,0l-9.019,5.2a.284.284,0,0,0-.136.249V204.8a.284.284,0,0,0,.136.249l2.464,1.424c1.334.678,2.17-.113,2.17-.9V195.281a.275.275,0,0,1,.271-.271h1.153a.275.275,0,0,1,.271.271v10.285a2.507,2.507,0,0,1-2.667,2.826,3.877,3.877,0,0,1-2.08-.565l-2.373-1.356a1.908,1.908,0,0,1-.949-1.65V194.4a1.908,1.908,0,0,1,.949-1.65l9.019-5.222a2.018,2.018,0,0,1,1.9,0l9.019,5.222a1.908,1.908,0,0,1,.95,1.65v10.42a1.908,1.908,0,0,1-.95,1.65l-9.019,5.222a2.312,2.312,0,0,1-.949.2Zm2.78-7.165c-3.956,0-4.769-1.808-4.769-3.345a.275.275,0,0,1,.271-.271h1.175a.232.232,0,0,1,.249.226c.181,1.2.7,1.786,3.1,1.786,1.9,0,2.713-.429,2.713-1.447,0-.588-.226-1.017-3.187-1.311-2.464-.249-4-.791-4-2.758,0-1.831,1.537-2.916,4.114-2.916,2.893,0,4.317.995,4.5,3.164a.365.365,0,0,1-.068.2.28.28,0,0,1-.181.09h-1.175a.265.265,0,0,1-.249-.2c-.271-1.243-.972-1.65-2.826-1.65-2.08,0-2.328.723-2.328,1.266,0,.656.294.859,3.1,1.221,2.78.362,4.091.882,4.091,2.826C215.484,203.6,213.857,204.729,210.986,204.729Z" transform="translate(-158.517 -150.661)" fill="#539e43"/>
    <path id="Path_68" data-name="Path 68" d="M21.7,20.479a1.15,1.15,0,0,0-.588-.995l-9.584-5.515a1.392,1.392,0,0,0-.52-.158h-.091a1.074,1.074,0,0,0-.52.158L.819,19.484a1.15,1.15,0,0,0-.588.995L.254,35.307a.562.562,0,0,0,.294.5.513.513,0,0,0,.565,0l5.7-3.255a1.15,1.15,0,0,0,.588-.995V24.616a1.15,1.15,0,0,1,.588-.995l2.419-1.4a1.1,1.1,0,0,1,.588-.158.972.972,0,0,1,.565.158l2.419,1.4a1.149,1.149,0,0,1,.588.995v6.939a1.15,1.15,0,0,0,.588.995l5.7,3.255a.552.552,0,0,0,.588,0,.562.562,0,0,0,.294-.5L21.7,20.479ZM67.772.068a.622.622,0,0,0-.565,0,.589.589,0,0,0-.294.5V15.258a.407.407,0,0,1-.61.362l-2.4-1.379a1.165,1.165,0,0,0-1.153,0l-9.584,5.538a1.15,1.15,0,0,0-.588.995V31.826a1.15,1.15,0,0,0,.588.995l9.584,5.538a1.165,1.165,0,0,0,1.153,0l9.584-5.538a1.15,1.15,0,0,0,.588-.995V4.272a1.159,1.159,0,0,0-.588-1.017L67.772.068ZM66.89,28.187a.259.259,0,0,1-.136.249l-3.277,1.9a.335.335,0,0,1-.294,0l-3.277-1.9a.283.283,0,0,1-.136-.249v-3.8a.259.259,0,0,1,.136-.249l3.277-1.9a.335.335,0,0,1,.294,0l3.277,1.9a.283.283,0,0,1,.136.249v3.8ZM99.666,24.3a1.129,1.129,0,0,0,.565-.995v-2.69a1.177,1.177,0,0,0-.565-.995L90.15,14.1A1.165,1.165,0,0,0,89,14.1l-9.584,5.538a1.15,1.15,0,0,0-.588.995V31.691a1.15,1.15,0,0,0,.588.995l9.516,5.425a1.123,1.123,0,0,0,1.13,0L95.823,34.9a.568.568,0,0,0,0-.995l-9.629-5.538a.589.589,0,0,1-.294-.5V24.412a.562.562,0,0,1,.294-.5L89.2,22.2a.552.552,0,0,1,.588,0l3.006,1.718a.589.589,0,0,1,.294.5v2.712a.562.562,0,0,0,.294.5.552.552,0,0,0,.588,0l5.7-3.323Z" fill="#333"/>
    <path id="Path_69" data-name="Path 69" d="M448.3,121.447a.205.205,0,0,1,.226,0l1.831,1.062a.237.237,0,0,1,.113.2v2.125a.237.237,0,0,1-.113.2l-1.831,1.062a.205.205,0,0,1-.226,0l-1.831-1.062a.237.237,0,0,1-.113-.2v-2.125a.237.237,0,0,1,.113-.2Z" transform="translate(-358.871 -97.668)" fill="#539e43"/>
    <g id="Group_29" data-name="Group 29" transform="translate(26.406 12.138)">
      <path id="Path_70" data-name="Path 70" d="M11.7,1.223a1.165,1.165,0,0,0-1.153,0L1.027,6.715a1.129,1.129,0,0,0-.565.995V18.718a1.177,1.177,0,0,0,.565.995L10.543,25.2a1.165,1.165,0,0,0,1.153,0l9.516-5.493a1.129,1.129,0,0,0,.565-.995V7.71a1.178,1.178,0,0,0-.565-.995Z" transform="translate(-0.372 0.789)" fill="url(#linear-gradient)"/>
      <g id="Group_27" data-name="Group 27" transform="translate(0 1.856)">
        <path id="Path_71" data-name="Path 71" d="M10.149,1.207.61,6.7A1.172,1.172,0,0,0,0,7.694V18.7a1.089,1.089,0,0,0,.294.723L11.008,1.071a1.291,1.291,0,0,0-.859.136Zm.927,24.1a1.39,1.39,0,0,0,.271-.113L20.886,19.7a1.15,1.15,0,0,0,.588-.995V7.694a1.151,1.151,0,0,0-.339-.791L11.076,25.3Z" transform="translate(0 -1.051)" fill="none"/>
        <path id="Path_72" data-name="Path 72" d="M22.072,6.878,12.51,1.385a1.569,1.569,0,0,0-.294-.113L1.5,19.627a1.19,1.19,0,0,0,.317.271l9.561,5.493a1.1,1.1,0,0,0,.881.113L22.32,7.1a1.186,1.186,0,0,0-.249-.226Z" transform="translate(-1.208 -1.229)" fill="url(#linear-gradient-2)"/>
      </g>
      <g id="Group_28" data-name="Group 28" transform="translate(0 0)">
        <path id="Path_73" data-name="Path 73" d="M21.474,18.788V7.78a1.172,1.172,0,0,0-.61-.995L11.3,1.293a1,1,0,0,0-.361-.136l10.466,17.88a.456.456,0,0,0,.068-.249ZM.61,6.785A1.173,1.173,0,0,0,0,7.78V18.788a1.222,1.222,0,0,0,.61.995l9.562,5.493a1.064,1.064,0,0,0,.746.136L.678,6.762.61,6.785Z" transform="translate(0 0.719)" fill="none"/>
        <path id="Path_74" data-name="Path 74" d="M49.834.809,49.7.877h.181Z" transform="translate(-39.978 -0.809)" fill-rule="evenodd" fill="url(#linear-gradient-3)"/>
        <path id="Path_75" data-name="Path 75" d="M23.582,28.943a1.286,1.286,0,0,0,.565-.723l-10.489-17.9a1.148,1.148,0,0,0-.814.136l-9.494,5.47L13.59,34.594a1.576,1.576,0,0,0,.429-.136l9.562-5.515Z" transform="translate(-2.696 -8.441)" fill-rule="evenodd" fill="url(#linear-gradient-4)"/>
        <path id="Path_76" data-name="Path 76" d="M111.021,104.247l-.068-.113v.158l.068-.045Z" transform="translate(-89.253 -83.926)" fill-rule="evenodd" fill="url(#linear-gradient-5)"/>
        <path id="Path_77" data-name="Path 77" d="M65.791,102.568l-9.539,5.493a1.364,1.364,0,0,1-.429.136l.181.339,10.579-6.125v-.136l-.271-.452A1.05,1.05,0,0,1,65.791,102.568Z" transform="translate(-44.905 -82.066)" fill-rule="evenodd" fill="url(#linear-gradient-6)"/>
        <path id="Path_78" data-name="Path 78" d="M65.791,102.568l-9.539,5.493a1.364,1.364,0,0,1-.429.136l.181.339,10.579-6.125v-.136l-.271-.452A1.05,1.05,0,0,1,65.791,102.568Z" transform="translate(-44.905 -82.066)" fill-rule="evenodd" fill="url(#linear-gradient-7)"/>
      </g>
    </g>
  </g>
</svg>
