<svg xmlns="http://www.w3.org/2000/svg" width="100" height="100" viewBox="0 0 100 100">
  <g id="oracle-6" transform="translate(-1041 -2353)">
    <rect id="Rectangle_1433" data-name="Rectangle 1433" width="100" height="100" transform="translate(1041 2353)" fill="none"/>
    <path id="oracle-6-2" data-name="oracle-6" d="M43.171,8.458h6.608L46.285,2.836,39.872,13H36.954L44.753.791A1.843,1.843,0,0,1,46.285,0a1.809,1.809,0,0,1,1.5.771L55.616,13H52.7L51.32,10.729H44.63L43.171,8.458Zm30.316,2.271V.123H71.01V11.767a1.214,1.214,0,0,0,.36.863,1.265,1.265,0,0,0,.9.37H83.568l1.459-2.271H73.486Zm-40.973-1.9a4.352,4.352,0,1,0,0-8.7H21.679V13h2.476V2.395H32.35a2.086,2.086,0,0,1,0,4.172l-6.982-.01L32.761,13h3.6L31.384,8.828h1.13ZM6.439,13a6.438,6.438,0,1,1,0-12.876h7.484a6.438,6.438,0,1,1,0,12.876H6.439Zm7.318-2.271a4.167,4.167,0,1,0,0-8.334H6.605a4.167,4.167,0,1,0,0,8.334h7.152ZM60.785,13a6.438,6.438,0,1,1,0-12.876h8.889L68.225,2.395H60.949a4.167,4.167,0,1,0,0,8.334h8.93L68.42,13H60.785ZM91.07,10.729A4.161,4.161,0,0,1,87.062,7.7H97.647l1.459-2.271H87.062A4.173,4.173,0,0,1,91.07,2.395h7.266L99.8.123h-8.9a6.438,6.438,0,1,0,0,12.877h7.636L100,10.729H91.07Z" transform="translate(1041 2397)" fill="#ea1b22"/>
  </g>
</svg>
