<svg xmlns="http://www.w3.org/2000/svg" width="100" height="100" viewBox="0 0 100 100">
  <g id="pwa" transform="translate(-972 -2662)">
    <rect id="Rectangle_1434" data-name="Rectangle 1434" width="100" height="100" transform="translate(972 2662)" fill="none"/>
    <g id="pwa-logo" transform="translate(972 2693)">
      <path id="Path_887" data-name="Path 887" d="M104.567,37.572,119.746,0H109.683L99.3,24.28,91.916,0H84.181L76.253,24.28,70.662,13.216,65.6,28.773l5.137,8.8h9.9L87.807,15.8l6.83,21.774Z" transform="translate(-39.977)" fill="#fb8c00"/>
      <path id="Path_888" data-name="Path 888" d="M9.529,24.674h6.182a18.216,18.216,0,0,0,5-.627l1.6-4.929L26.782,5.343a11.006,11.006,0,0,0-1.166-1.531Q22.175,0,15.545,0H0V37.572H9.529Zm8.184-16.03a4.915,4.915,0,0,1,1.345,3.623,5.29,5.29,0,0,1-1.182,3.627q-1.3,1.489-4.773,1.489H9.529V7.29h3.6q3.24,0,4.585,1.354ZM73.6,30.843l2.889-7.29H84.83L80.873,12.494,85.823,0,100,37.572H89.545l-2.422-6.729Z" fill="#616161"/>
    </g>
  </g>
</svg>
