<svg xmlns="http://www.w3.org/2000/svg" width="150.699" height="170" viewBox="0 0 150.699 170">
  <g id="sbg" transform="translate(-1280.669 -2338.807)">
    <path id="Path_47" data-name="Path 47" d="M23.062,43.305s4.7-7.81,10.852-10.677,13.757-.788,13.757-.788L72.863,43.305l17.3-14.859L49.811,9.745a11.122,11.122,0,0,0-4.293-1.716,37.35,37.35,0,0,0-6.665-.421H35.839a47.578,47.578,0,0,0-6.071.421A8.788,8.788,0,0,0,26.3,9.219L-1.844,22.748s-3.617,3.074-10.239,1.789-16.248-6.928-16.248-6.928L12.982-11.245a23.258,23.258,0,0,1,8.262-4.679,40.631,40.631,0,0,1,11.2-1.257H57.87a50.507,50.507,0,0,1,9.05,1.257,37.312,37.312,0,0,1,7.766,3.03L118.336,10.1v65.23l-10.674,17Z" transform="translate(1313.032 2356)" fill="#fff"/>
    <path id="Path_48" data-name="Path 48" d="M66.943,31.828s-4.7,7.81-10.852,10.677-13.757.788-13.757.788L17.143,31.828-.159,46.687l40.354,18.7A11.122,11.122,0,0,0,44.487,67.1a37.35,37.35,0,0,0,6.665.421h3.014a47.577,47.577,0,0,0,6.071-.421,8.788,8.788,0,0,0,3.466-1.19L91.849,52.385s3.617-3.074,10.239-1.789,16.248,6.928,16.248,6.928L77.024,86.378a23.258,23.258,0,0,1-8.262,4.679,40.631,40.631,0,0,1-11.2,1.257H32.135a50.507,50.507,0,0,1-9.05-1.257,37.312,37.312,0,0,1-7.766-3.03L-28.331,65.036V-.193l10.674-17Z" transform="translate(1309 2416.481)" fill="#fff"/>
  </g>
</svg>
