<svg xmlns="http://www.w3.org/2000/svg" xmlns:xlink="http://www.w3.org/1999/xlink" width="100" height="60" viewBox="0 0 100 60">
  <defs>
    <linearGradient id="linear-gradient" y1="-0.889" x2="1" y2="1.889" gradientUnits="objectBoundingBox">
      <stop offset="0" stop-color="#2383ae"/>
      <stop offset="1" stop-color="#6dd7b9"/>
    </linearGradient>
  </defs>
  <path id="tailwindcss-icon" d="M25,32.8q5-20,25-20c20,0,22.5,15,32.5,17.5q10,2.5,17.5-7.5-5,20-25,20c-20,0-22.5-15-32.5-17.5q-10-2.5-17.5,7.5ZM0,62.8q5-20,25-20c20,0,22.5,15,32.5,17.5q10,2.5,17.5-7.5-5,20-25,20c-20,0-22.5-15-32.5-17.5Q7.5,52.8,0,62.8Z" transform="translate(0 -12.8)" fill-rule="evenodd" fill="url(#linear-gradient)"/>
</svg>
