<svg xmlns="http://www.w3.org/2000/svg" width="100" height="79.935" viewBox="0 0 100 79.935">
  <g id="zeplin" transform="translate(0 0.1)">
    <path id="Path_59" data-name="Path 59" d="M243.91,1326.4l-5.231,1.911-.278,15.561,18.108-6.615c-6.216-2.082-10.749-5.751-12.6-10.857" transform="translate(-228.494 -1271.383)" fill="#fdbd39"/>
    <path id="Path_60" data-name="Path 60" d="M18.153,930.3,0,936.931l10.184,11.742,5.231-1.911c-1.845-5.09-.706-10.836,2.738-16.462" transform="translate(0 -891.741)" fill="#f69833"/>
    <path id="Path_61" data-name="Path 61" d="M384.031,285.6c-23.115,8.443-38.019,25.869-33.282,38.916l83.7-30.577c-4.737-13.047-27.307-16.782-50.422-8.339" transform="translate(-335.333 -269.495)" fill="#fecf33"/>
    <path id="Path_62" data-name="Path 62" d="M421.322,629.516c23.115-8.443,38.044-25.79,33.282-38.916l-83.7,30.573c4.762,13.13,27.307,16.786,50.422,8.343" transform="translate(-355.489 -566.156)" fill="#ee6723"/>
    <path id="Path_63" data-name="Path 63" d="M454.7,590.5,371,621.077c1.637,4.521,7.89,6.748,16.658,6.748,8.551,0,19.5-2.115,30.905-6.282,23.115-8.443,39.373-22.117,36.137-31.042" transform="translate(-355.585 -566.06)" fill="#f69833"/>
    <path id="Path_64" data-name="Path 64" d="M428.571,428.2c-8.547,0-19.5,2.115-30.905,6.282-23.115,8.443-39.373,22.113-36.137,31.038l83.7-30.577c-1.641-4.521-7.89-6.744-16.662-6.744" transform="translate(-346.114 -410.504)" fill="#fdbd39"/>
    <g id="Group_26" data-name="Group 26" transform="translate(32.37 -0.1)">
      <path id="Path_65" data-name="Path 65" d="M824.5,226.165c-2.464,0-6.1-2.223-10.8-6.611a139.663,139.663,0,0,1-17.946-21.407,139.806,139.806,0,0,1-13.9-24.249c-3.22-7.654-3.681-12.357-1.367-13.986a3.086,3.086,0,0,1,1.82-.536c1.882,0,5.555,1.4,12.341,8.082l.15.145-.021.208c-.046.482-.087.964-.125,1.442l-.075.943-.665-.669c-7.313-7.367-10.529-8.161-11.576-8.161a1.209,1.209,0,0,0-.706.179c-1.005.706-1.072,4.163,2.053,11.58A137.858,137.858,0,0,0,797.381,197,137.28,137.28,0,0,0,815.056,218.1c5.892,5.5,8.547,6.091,9.415,6.091a1.23,1.23,0,0,0,.723-.191c1.06-.744,1.06-4.446-2.422-12.432l-.162-.366.349-.191c.349-.191.69-.378,1.005-.561l.42-.237.2.44c2.468,5.659,4.778,12.852,1.749,14.979a3.1,3.1,0,0,1-1.828.536Zm0-.873v0Z" transform="translate(-779.038 -152.749)" fill="#ee6723"/>
      <path id="Path_66" data-name="Path 66" d="M1145.054,63.119l-.033.432c-.586,7.23-2.123,15.922-6.137,16.275-.083.008-.166.008-.245.008-2.726,0-5.306-3.906-7.662-11.605a139.652,139.652,0,0,1-4.878-27.544,140,140,0,0,1,.037-27.976c1.022-8.244,2.967-12.548,5.784-12.8.083-.008.17-.012.253-.012,1.978,0,4.957,2.24,8.007,12.669l-1.99.382a41,41,0,0,0-3.228-8.269c-1.018-1.8-2.011-2.792-2.788-2.792a.531.531,0,0,0-.079,0c-1.222.108-3,3.066-3.989,11.061a137.987,137.987,0,0,0-.033,27.556,137.95,137.95,0,0,0,4.8,27.133,36.982,36.982,0,0,0,3.116,7.637c.972,1.654,1.916,2.564,2.651,2.564a.45.45,0,0,0,.075,0c1.168-.1,3.37-3.183,4.3-14.023Z" transform="translate(-1111.03 0.1)" fill="#ee6723"/>
    </g>
  </g>
</svg>
